<?xml version="1.0" encoding="utf-8" standalone="no"?>
<!DOCTYPE svg PUBLIC "-//W3C//DTD SVG 1.1//EN"
  "http://www.w3.org/Graphics/SVG/1.1/DTD/svg11.dtd">
<svg xmlns:xlink="http://www.w3.org/1999/xlink" width="512.399521pt" height="332.39952pt" viewBox="0 0 512.399521 332.39952" xmlns="http://www.w3.org/2000/svg" version="1.1">
 <metadata>
  <rdf:RDF xmlns:dc="http://purl.org/dc/elements/1.1/" xmlns:cc="http://creativecommons.org/ns#" xmlns:rdf="http://www.w3.org/1999/02/22-rdf-syntax-ns#">
   <cc:Work>
    <dc:type rdf:resource="http://purl.org/dc/dcmitype/StillImage"/>
    <dc:date>2026-10-09T15:57:39.175360</dc:date>
    <dc:format>image/svg+xml</dc:format>
    <dc:creator>
     <cc:Agent>
      <dc:title>Matplotlib v3.11.1, https://matplotlib.org/</dc:title>
     </cc:Agent>
    </dc:creator>
   </cc:Work>
  </rdf:RDF>
 </metadata>
 <defs>
  <style type="text/css">*{stroke-linejoin: round; stroke-linecap: butt}</style>
 </defs>
 <g id="figure_1">
  <g id="patch_1">
   <path d="M 0 332.39952 
L 512.399521 332.39952 
L 512.399521 0 
L 0 0 
z
" style="fill: #ffffff"/>
  </g>
  <g id="axes_1">
   <g id="patch_2">
    <path d="M 44.103906 294.198739 
L 503.230578 294.198739 
L 503.230578 7.2 
L 44.103906 7.2 
z
" style="fill: #ffffff"/>
   </g>
   <g id="FillBetweenPolyCollection_1">
    <defs>
     <path id="m0f775bfd19" d="M 64.9733 -209.407284 
L 64.9733 -169.727668 
L 70.465246 -173.543428 
L 75.957192 -137.565242 
L 81.449138 -78.692497 
L 86.941084 -117.643259 
L 92.43303 -111.355116 
L 97.924975 -107.925219 
L 103.416921 -146.940293 
L 108.908867 -146.833108 
L 114.400813 -101.901463 
L 119.892759 -117.643259 
L 125.384705 -83.015595 
L 130.87665 -90.325562 
L 136.368596 -113.677442 
L 141.860542 -96.213552 
L 147.352488 -83.144217 
L 152.844434 -147.790621 
L 158.33638 -52.725321 
L 163.828325 -76.82749 
L 169.320271 -52.725321 
L 174.812217 -52.725321 
L 180.304163 -52.725321 
L 185.796109 -84.294661 
L 191.288054 -51.246178 
L 196.78 -91.790414 
L 202.271946 -79.328457 
L 207.763892 -80.721852 
L 213.255838 -52.725321 
L 218.747784 -59.463639 
L 224.239729 -52.725321 
L 229.731675 -53.882911 
L 235.223621 -51.246178 
L 240.715567 -51.246178 
L 246.207513 -52.725321 
L 251.699459 -53.882911 
L 257.191404 -53.882911 
L 262.68335 -51.246178 
L 268.175296 -51.246178 
L 273.667242 -51.246178 
L 279.159188 -53.882911 
L 284.651134 -52.725321 
L 290.143079 -51.246178 
L 295.635025 -52.725321 
L 301.126971 -51.246178 
L 306.618917 -51.246178 
L 312.110863 -52.725321 
L 317.602809 -51.246178 
L 323.094754 -52.725321 
L 328.5867 -52.725321 
L 334.078646 -52.725321 
L 339.570592 -52.725321 
L 345.062538 -52.725321 
L 350.554484 -52.725321 
L 356.046429 -52.725321 
L 361.538375 -52.725321 
L 367.030321 -52.725321 
L 372.522267 -52.725321 
L 378.014213 -52.725321 
L 383.506159 -52.725321 
L 388.998104 -52.725321 
L 394.49005 -52.725321 
L 399.981996 -52.725321 
L 405.473942 -51.246178 
L 410.965888 -51.246178 
L 416.457833 -51.246178 
L 421.949779 -51.246178 
L 427.441725 -51.246178 
L 432.933671 -52.725321 
L 438.425617 -51.246178 
L 443.917563 -52.725321 
L 449.409508 -52.725321 
L 454.901454 -52.725321 
L 460.3934 -51.246178 
L 465.885346 -52.725321 
L 471.377292 -51.246178 
L 476.869238 -51.246178 
L 482.361183 -52.725321 
L 482.361183 -52.725321 
L 482.361183 -52.725321 
L 476.869238 -52.725321 
L 471.377292 -52.725321 
L 465.885346 -52.725321 
L 460.3934 -53.882911 
L 454.901454 -52.725321 
L 449.409508 -52.725321 
L 443.917563 -52.725321 
L 438.425617 -52.725321 
L 432.933671 -52.725321 
L 427.441725 -52.725321 
L 421.949779 -52.725321 
L 416.457833 -52.725321 
L 410.965888 -52.725321 
L 405.473942 -52.725321 
L 399.981996 -52.725321 
L 394.49005 -52.725321 
L 388.998104 -53.882911 
L 383.506159 -55.533549 
L 378.014213 -52.725321 
L 372.522267 -52.725321 
L 367.030321 -52.725321 
L 361.538375 -52.725321 
L 356.046429 -52.725321 
L 350.554484 -52.725321 
L 345.062538 -55.533549 
L 339.570592 -110.819194 
L 334.078646 -52.725321 
L 328.5867 -52.725321 
L 323.094754 -53.882911 
L 317.602809 -53.882911 
L 312.110863 -100.786747 
L 306.618917 -53.882911 
L 301.126971 -53.882911 
L 295.635025 -82.815518 
L 290.143079 -53.882911 
L 284.651134 -79.328457 
L 279.159188 -120.48007 
L 273.667242 -107.553647 
L 268.175296 -107.139201 
L 262.68335 -123.888529 
L 257.191404 -112.434104 
L 251.699459 -91.790414 
L 246.207513 -114.663537 
L 240.715567 -73.661982 
L 235.223621 -90.325562 
L 229.731675 -83.144217 
L 224.239729 -101.665658 
L 218.747784 -111.355116 
L 213.255838 -139.501704 
L 207.763892 -90.325562 
L 202.271946 -108.561179 
L 196.78 -213.901877 
L 191.288054 -52.725321 
L 185.796109 -177.587848 
L 180.304163 -169.727668 
L 174.812217 -84.294661 
L 169.320271 -133.942414 
L 163.828325 -140.737896 
L 158.33638 -185.862473 
L 152.844434 -179.081282 
L 147.352488 -96.213552 
L 141.860542 -120.48007 
L 136.368596 -169.934891 
L 130.87665 -146.182857 
L 125.384705 -128.040133 
L 119.892759 -155.657946 
L 114.400813 -123.559831 
L 108.908867 -293.539788 
L 103.416921 -175.00828 
L 97.924975 -133.942414 
L 92.43303 -177.587848 
L 86.941084 -213.901877 
L 81.449138 -142.681504 
L 75.957192 -210.014661 
L 70.465246 -217.203153 
L 64.9733 -209.407284 
z
" style="stroke: #2ca02c; stroke-opacity: 0.12"/>
    </defs>
    <g clip-path="url(#pb4c9b248f7)">
     <use xlink:href="#m0f775bfd19" x="0" y="332.39952" style="fill: #2ca02c; fill-opacity: 0.12; stroke: #2ca02c; stroke-opacity: 0.12"/>
    </g>
   </g>
   <g id="FillBetweenPolyCollection_2">
    <defs>
     <path id="mdd71423885" d="M 64.9733 -209.407284 
L 64.9733 -169.727668 
L 70.465246 -147.676291 
L 75.957192 -177.473518 
L 81.449138 -114.663537 
L 86.941084 -197.309753 
L 92.43303 -117.493201 
L 97.924975 -55.533549 
L 103.416921 -102.794666 
L 108.908867 -118.336384 
L 114.400813 -146.940293 
L 119.892759 -135.114295 
L 125.384705 -193.022382 
L 130.87665 -146.940293 
L 136.368596 -140.737896 
L 141.860542 -146.833108 
L 147.352488 -52.725321 
L 152.844434 -59.463639 
L 158.33638 -76.82749 
L 163.828325 -74.047845 
L 169.320271 -73.661982 
L 174.812217 -74.047845 
L 180.304163 -74.047845 
L 185.796109 -59.463639 
L 191.288054 -55.533549 
L 196.78 -52.725321 
L 202.271946 -53.882911 
L 207.763892 -52.725321 
L 213.255838 -51.246178 
L 218.747784 -51.246178 
L 224.239729 -53.882911 
L 229.731675 -55.533549 
L 235.223621 -55.533549 
L 240.715567 -51.246178 
L 246.207513 -52.725321 
L 251.699459 -53.882911 
L 257.191404 -51.246178 
L 262.68335 -52.725321 
L 268.175296 -51.246178 
L 273.667242 -52.725321 
L 279.159188 -51.246178 
L 284.651134 -51.246178 
L 290.143079 -51.246178 
L 295.635025 -52.725321 
L 301.126971 -51.246178 
L 306.618917 -51.246178 
L 312.110863 -51.246178 
L 317.602809 -51.246178 
L 323.094754 -52.725321 
L 328.5867 -51.246178 
L 334.078646 -52.725321 
L 339.570592 -51.246178 
L 345.062538 -52.725321 
L 350.554484 -52.725321 
L 356.046429 -51.246178 
L 361.538375 -52.725321 
L 367.030321 -52.725321 
L 372.522267 -51.246178 
L 378.014213 -52.725321 
L 383.506159 -52.725321 
L 388.998104 -52.725321 
L 394.49005 -51.246178 
L 399.981996 -52.725321 
L 405.473942 -51.246178 
L 410.965888 -52.725321 
L 416.457833 -51.246178 
L 421.949779 -52.725321 
L 427.441725 -52.725321 
L 432.933671 -51.246178 
L 438.425617 -52.725321 
L 443.917563 -52.725321 
L 449.409508 -52.725321 
L 454.901454 -51.246178 
L 460.3934 -52.725321 
L 465.885346 -51.246178 
L 471.377292 -52.725321 
L 476.869238 -52.725321 
L 482.361183 -52.725321 
L 482.361183 -52.725321 
L 482.361183 -52.725321 
L 476.869238 -52.725321 
L 471.377292 -52.725321 
L 465.885346 -52.725321 
L 460.3934 -52.725321 
L 454.901454 -52.725321 
L 449.409508 -52.725321 
L 443.917563 -52.725321 
L 438.425617 -52.725321 
L 432.933671 -52.725321 
L 427.441725 -52.725321 
L 421.949779 -52.725321 
L 416.457833 -52.725321 
L 410.965888 -52.725321 
L 405.473942 -52.725321 
L 399.981996 -55.533549 
L 394.49005 -52.725321 
L 388.998104 -52.725321 
L 383.506159 -52.725321 
L 378.014213 -53.882911 
L 372.522267 -53.882911 
L 367.030321 -55.533549 
L 361.538375 -53.882911 
L 356.046429 -52.725321 
L 350.554484 -53.882911 
L 345.062538 -55.533549 
L 339.570592 -52.725321 
L 334.078646 -55.533549 
L 328.5867 -53.882911 
L 323.094754 -53.882911 
L 317.602809 -52.725321 
L 312.110863 -53.882911 
L 306.618917 -74.047845 
L 301.126971 -52.725321 
L 295.635025 -52.725321 
L 290.143079 -52.725321 
L 284.651134 -53.882911 
L 279.159188 -101.665658 
L 273.667242 -93.040897 
L 268.175296 -53.882911 
L 262.68335 -55.533549 
L 257.191404 -52.725321 
L 251.699459 -225.792186 
L 246.207513 -55.533549 
L 240.715567 -55.533549 
L 235.223621 -78.692497 
L 229.731675 -74.047845 
L 224.239729 -70.896628 
L 218.747784 -70.896628 
L 213.255838 -55.533549 
L 207.763892 -79.328457 
L 202.271946 -149.198308 
L 196.78 -74.047845 
L 191.288054 -82.815518 
L 185.796109 -74.047845 
L 180.304163 -74.047845 
L 174.812217 -133.942414 
L 169.320271 -118.336384 
L 163.828325 -135.114295 
L 158.33638 -89.346613 
L 152.844434 -136.200429 
L 147.352488 -122.352222 
L 141.860542 -166.940877 
L 136.368596 -250.780411 
L 130.87665 -258.061796 
L 125.384705 -257.53302 
L 119.892759 -155.657946 
L 114.400813 -250.937615 
L 108.908867 -146.833108 
L 103.416921 -146.940293 
L 97.924975 -142.681504 
L 92.43303 -170.163551 
L 86.941084 -213.901877 
L 81.449138 -169.934891 
L 75.957192 -227.035523 
L 70.465246 -173.543428 
L 64.9733 -209.407284 
z
" style="stroke: #008080; stroke-opacity: 0.12"/>
    </defs>
    <g clip-path="url(#pb4c9b248f7)">
     <use xlink:href="#mdd71423885" x="0" y="332.39952" style="fill: #008080; fill-opacity: 0.12; stroke: #008080; stroke-opacity: 0.12"/>
    </g>
   </g>
   <g id="FillBetweenPolyCollection_3">
    <defs>
     <path id="m8e04ccc912" d="M 64.9733 -209.407284 
L 64.9733 -169.727668 
L 70.465246 -126.925417 
L 75.957192 -126.768213 
L 81.449138 -142.681504 
L 86.941084 -114.863614 
L 92.43303 -122.352222 
L 97.924975 -117.493201 
L 103.416921 -175.00828 
L 108.908867 -123.888529 
L 114.400813 -118.579335 
L 119.892759 -80.721852 
L 125.384705 -91.783268 
L 130.87665 -101.665658 
L 136.368596 -70.896628 
L 141.860542 -52.725321 
L 147.352488 -52.725321 
L 152.844434 -83.144217 
L 158.33638 -70.896628 
L 163.828325 -117.879065 
L 169.320271 -59.463639 
L 174.812217 -55.533549 
L 180.304163 -52.725321 
L 185.796109 -96.213552 
L 191.288054 -59.463639 
L 196.78 -90.325562 
L 202.271946 -52.725321 
L 207.763892 -52.725321 
L 213.255838 -59.463639 
L 218.747784 -82.815518 
L 224.239729 -78.692497 
L 229.731675 -90.325562 
L 235.223621 -51.246178 
L 240.715567 -51.246178 
L 246.207513 -52.725321 
L 251.699459 -52.725321 
L 257.191404 -53.882911 
L 262.68335 -51.246178 
L 268.175296 -51.246178 
L 273.667242 -51.246178 
L 279.159188 -51.246178 
L 284.651134 -52.725321 
L 290.143079 -51.246178 
L 295.635025 -51.246178 
L 301.126971 -52.725321 
L 306.618917 -51.246178 
L 312.110863 -51.246178 
L 317.602809 -51.246178 
L 323.094754 -52.725321 
L 328.5867 -51.246178 
L 334.078646 -52.725321 
L 339.570592 -51.246178 
L 345.062538 -52.725321 
L 350.554484 -51.246178 
L 356.046429 -52.725321 
L 361.538375 -52.725321 
L 367.030321 -52.725321 
L 372.522267 -52.725321 
L 378.014213 -52.725321 
L 383.506159 -51.246178 
L 388.998104 -52.725321 
L 394.49005 -51.246178 
L 399.981996 -51.246178 
L 405.473942 -52.725321 
L 410.965888 -52.725321 
L 416.457833 -51.246178 
L 421.949779 -52.725321 
L 427.441725 -52.725321 
L 432.933671 -52.725321 
L 438.425617 -51.246178 
L 443.917563 -51.246178 
L 449.409508 -52.725321 
L 454.901454 -52.725321 
L 460.3934 -51.246178 
L 465.885346 -51.246178 
L 471.377292 -51.246178 
L 476.869238 -51.246178 
L 482.361183 -51.246178 
L 482.361183 -52.725321 
L 482.361183 -52.725321 
L 476.869238 -52.725321 
L 471.377292 -52.725321 
L 465.885346 -52.725321 
L 460.3934 -52.725321 
L 454.901454 -52.725321 
L 449.409508 -52.725321 
L 443.917563 -52.725321 
L 438.425617 -52.725321 
L 432.933671 -52.725321 
L 427.441725 -52.725321 
L 421.949779 -53.882911 
L 416.457833 -52.725321 
L 410.965888 -53.882911 
L 405.473942 -52.725321 
L 399.981996 -52.725321 
L 394.49005 -52.725321 
L 388.998104 -52.725321 
L 383.506159 -52.725321 
L 378.014213 -53.882911 
L 372.522267 -52.725321 
L 367.030321 -52.725321 
L 361.538375 -55.533549 
L 356.046429 -52.725321 
L 350.554484 -52.725321 
L 345.062538 -52.725321 
L 339.570592 -52.725321 
L 334.078646 -53.882911 
L 328.5867 -52.725321 
L 323.094754 -53.882911 
L 317.602809 -52.725321 
L 312.110863 -52.725321 
L 306.618917 -83.144217 
L 301.126971 -52.725321 
L 295.635025 -52.725321 
L 290.143079 -52.725321 
L 284.651134 -101.665658 
L 279.159188 -53.882911 
L 273.667242 -52.725321 
L 268.175296 -52.725321 
L 262.68335 -52.725321 
L 257.191404 -129.297762 
L 251.699459 -74.047845 
L 246.207513 -53.882911 
L 240.715567 -107.139201 
L 235.223621 -127.389882 
L 229.731675 -112.434104 
L 224.239729 -118.579335 
L 218.747784 -140.737896 
L 213.255838 -96.277862 
L 207.763892 -118.336384 
L 202.271946 -73.661982 
L 196.78 -146.833108 
L 191.288054 -74.047845 
L 185.796109 -119.572576 
L 180.304163 -83.015595 
L 174.812217 -83.015595 
L 169.320271 -168.227088 
L 163.828325 -279.427193 
L 158.33638 -93.834061 
L 152.844434 -116.014059 
L 147.352488 -238.954414 
L 141.860542 -107.553647 
L 136.368596 -93.834061 
L 130.87665 -127.389882 
L 125.384705 -202.654675 
L 119.892759 -141.373856 
L 114.400813 -250.937615 
L 108.908867 -188.65641 
L 103.416921 -285.300891 
L 97.924975 -133.942414 
L 92.43303 -312.154123 
L 86.941084 -126.925417 
L 81.449138 -210.9293 
L 75.957192 -210.014661 
L 70.465246 -197.309753 
L 64.9733 -209.407284 
z
" style="stroke: #ff7f0e; stroke-opacity: 0.12"/>
    </defs>
    <g clip-path="url(#pb4c9b248f7)">
     <use xlink:href="#m8e04ccc912" x="0" y="332.39952" style="fill: #ff7f0e; fill-opacity: 0.12; stroke: #ff7f0e; stroke-opacity: 0.12"/>
    </g>
   </g>
   <g id="matplotlib.axis_1">
    <g id="xtick_1">
     <g id="line2d_1">
      <path d="M 59.481355 294.198739 
L 59.481355 7.2 
" clip-path="url(#pb4c9b248f7)" style="fill: none; stroke: #b0b0b0; stroke-opacity: 0.2; stroke-width: 0.8; stroke-linecap: square"/>
     </g>
     <g id="line2d_2">
      <defs>
       <path id="m8116580dfe" d="M 0 0 
L 0 3.5 
" style="stroke: #000000; stroke-width: 0.8"/>
      </defs>
      <g>
       <use xlink:href="#m8116580dfe" x="59.481355" y="294.198739" style="stroke: #000000; stroke-width: 0.8"/>
      </g>
     </g>
     <g id="text_1">
      <!-- 0 -->
      <g transform="translate(56.300105 308.796395) scale(0.1 -0.1)">
       <defs>
        <path id="DejaVuSans-13" d="M 2034 4250 
Q 1547 4250 1301 3770 
Q 1056 3291 1056 2328 
Q 1056 1369 1301 889 
Q 1547 409 2034 409 
Q 2525 409 2770 889 
Q 3016 1369 3016 2328 
Q 3016 3291 2770 3770 
Q 2525 4250 2034 4250 
z
M 2034 4750 
Q 2819 4750 3233 4129 
Q 3647 3509 3647 2328 
Q 3647 1150 3233 529 
Q 2819 -91 2034 -91 
Q 1250 -91 836 529 
Q 422 1150 422 2328 
Q 422 3509 836 4129 
Q 1250 4750 2034 4750 
z
" transform="scale(0.015625)"/>
       </defs>
       <use xlink:href="#DejaVuSans-13"/>
      </g>
     </g>
    </g>
    <g id="xtick_2">
     <g id="line2d_3">
      <path d="M 114.400813 294.198739 
L 114.400813 7.2 
" clip-path="url(#pb4c9b248f7)" style="fill: none; stroke: #b0b0b0; stroke-opacity: 0.2; stroke-width: 0.8; stroke-linecap: square"/>
     </g>
     <g id="line2d_4">
      <g>
       <use xlink:href="#m8116580dfe" x="114.400813" y="294.198739" style="stroke: #000000; stroke-width: 0.8"/>
      </g>
     </g>
     <g id="text_2">
      <!-- 10 -->
      <g transform="translate(108.038313 308.796395) scale(0.1 -0.1)">
       <defs>
        <path id="DejaVuSans-14" d="M 794 531 
L 1825 531 
L 1825 4091 
L 703 3866 
L 703 4441 
L 1819 4666 
L 2450 4666 
L 2450 531 
L 3481 531 
L 3481 0 
L 794 0 
L 794 531 
z
" transform="scale(0.015625)"/>
       </defs>
       <use xlink:href="#DejaVuSans-14"/>
       <use xlink:href="#DejaVuSans-13" transform="translate(63.625 0)"/>
      </g>
     </g>
    </g>
    <g id="xtick_3">
     <g id="line2d_5">
      <path d="M 169.320271 294.198739 
L 169.320271 7.2 
" clip-path="url(#pb4c9b248f7)" style="fill: none; stroke: #b0b0b0; stroke-opacity: 0.2; stroke-width: 0.8; stroke-linecap: square"/>
     </g>
     <g id="line2d_6">
      <g>
       <use xlink:href="#m8116580dfe" x="169.320271" y="294.198739" style="stroke: #000000; stroke-width: 0.8"/>
      </g>
     </g>
     <g id="text_3">
      <!-- 20 -->
      <g transform="translate(162.957771 308.796395) scale(0.1 -0.1)">
       <defs>
        <path id="DejaVuSans-15" d="M 1228 531 
L 3431 531 
L 3431 0 
L 469 0 
L 469 531 
Q 828 903 1448 1529 
Q 2069 2156 2228 2338 
Q 2531 2678 2651 2914 
Q 2772 3150 2772 3378 
Q 2772 3750 2511 3984 
Q 2250 4219 1831 4219 
Q 1534 4219 1204 4116 
Q 875 4013 500 3803 
L 500 4441 
Q 881 4594 1212 4672 
Q 1544 4750 1819 4750 
Q 2544 4750 2975 4387 
Q 3406 4025 3406 3419 
Q 3406 3131 3298 2873 
Q 3191 2616 2906 2266 
Q 2828 2175 2409 1742 
Q 1991 1309 1228 531 
z
" transform="scale(0.015625)"/>
       </defs>
       <use xlink:href="#DejaVuSans-15"/>
       <use xlink:href="#DejaVuSans-13" transform="translate(63.625 0)"/>
      </g>
     </g>
    </g>
    <g id="xtick_4">
     <g id="line2d_7">
      <path d="M 224.239729 294.198739 
L 224.239729 7.2 
" clip-path="url(#pb4c9b248f7)" style="fill: none; stroke: #b0b0b0; stroke-opacity: 0.2; stroke-width: 0.8; stroke-linecap: square"/>
     </g>
     <g id="line2d_8">
      <g>
       <use xlink:href="#m8116580dfe" x="224.239729" y="294.198739" style="stroke: #000000; stroke-width: 0.8"/>
      </g>
     </g>
     <g id="text_4">
      <!-- 30 -->
      <g transform="translate(217.877229 308.796395) scale(0.1 -0.1)">
       <defs>
        <path id="DejaVuSans-16" d="M 2597 2516 
Q 3050 2419 3304 2112 
Q 3559 1806 3559 1356 
Q 3559 666 3084 287 
Q 2609 -91 1734 -91 
Q 1441 -91 1130 -33 
Q 819 25 488 141 
L 488 750 
Q 750 597 1062 519 
Q 1375 441 1716 441 
Q 2309 441 2620 675 
Q 2931 909 2931 1356 
Q 2931 1769 2642 2001 
Q 2353 2234 1838 2234 
L 1294 2234 
L 1294 2753 
L 1863 2753 
Q 2328 2753 2575 2939 
Q 2822 3125 2822 3475 
Q 2822 3834 2567 4026 
Q 2313 4219 1838 4219 
Q 1578 4219 1281 4162 
Q 984 4106 628 3988 
L 628 4550 
Q 988 4650 1302 4700 
Q 1616 4750 1894 4750 
Q 2613 4750 3031 4423 
Q 3450 4097 3450 3541 
Q 3450 3153 3228 2886 
Q 3006 2619 2597 2516 
z
" transform="scale(0.015625)"/>
       </defs>
       <use xlink:href="#DejaVuSans-16"/>
       <use xlink:href="#DejaVuSans-13" transform="translate(63.625 0)"/>
      </g>
     </g>
    </g>
    <g id="xtick_5">
     <g id="line2d_9">
      <path d="M 279.159188 294.198739 
L 279.159188 7.2 
" clip-path="url(#pb4c9b248f7)" style="fill: none; stroke: #b0b0b0; stroke-opacity: 0.2; stroke-width: 0.8; stroke-linecap: square"/>
     </g>
     <g id="line2d_10">
      <g>
       <use xlink:href="#m8116580dfe" x="279.159188" y="294.198739" style="stroke: #000000; stroke-width: 0.8"/>
      </g>
     </g>
     <g id="text_5">
      <!-- 40 -->
      <g transform="translate(272.796688 308.796395) scale(0.1 -0.1)">
       <defs>
        <path id="DejaVuSans-17" d="M 2419 4116 
L 825 1625 
L 2419 1625 
L 2419 4116 
z
M 2253 4666 
L 3047 4666 
L 3047 1625 
L 3713 1625 
L 3713 1100 
L 3047 1100 
L 3047 0 
L 2419 0 
L 2419 1100 
L 313 1100 
L 313 1709 
L 2253 4666 
z
" transform="scale(0.015625)"/>
       </defs>
       <use xlink:href="#DejaVuSans-17"/>
       <use xlink:href="#DejaVuSans-13" transform="translate(63.625 0)"/>
      </g>
     </g>
    </g>
    <g id="xtick_6">
     <g id="line2d_11">
      <path d="M 334.078646 294.198739 
L 334.078646 7.2 
" clip-path="url(#pb4c9b248f7)" style="fill: none; stroke: #b0b0b0; stroke-opacity: 0.2; stroke-width: 0.8; stroke-linecap: square"/>
     </g>
     <g id="line2d_12">
      <g>
       <use xlink:href="#m8116580dfe" x="334.078646" y="294.198739" style="stroke: #000000; stroke-width: 0.8"/>
      </g>
     </g>
     <g id="text_6">
      <!-- 50 -->
      <g transform="translate(327.716146 308.796395) scale(0.1 -0.1)">
       <defs>
        <path id="DejaVuSans-18" d="M 691 4666 
L 3169 4666 
L 3169 4134 
L 1269 4134 
L 1269 2991 
Q 1406 3038 1543 3061 
Q 1681 3084 1819 3084 
Q 2600 3084 3056 2656 
Q 3513 2228 3513 1497 
Q 3513 744 3044 326 
Q 2575 -91 1722 -91 
Q 1428 -91 1123 -41 
Q 819 9 494 109 
L 494 744 
Q 775 591 1075 516 
Q 1375 441 1709 441 
Q 2250 441 2565 725 
Q 2881 1009 2881 1497 
Q 2881 1984 2565 2268 
Q 2250 2553 1709 2553 
Q 1456 2553 1204 2497 
Q 953 2441 691 2322 
L 691 4666 
z
" transform="scale(0.015625)"/>
       </defs>
       <use xlink:href="#DejaVuSans-18"/>
       <use xlink:href="#DejaVuSans-13" transform="translate(63.625 0)"/>
      </g>
     </g>
    </g>
    <g id="xtick_7">
     <g id="line2d_13">
      <path d="M 388.998104 294.198739 
L 388.998104 7.2 
" clip-path="url(#pb4c9b248f7)" style="fill: none; stroke: #b0b0b0; stroke-opacity: 0.2; stroke-width: 0.8; stroke-linecap: square"/>
     </g>
     <g id="line2d_14">
      <g>
       <use xlink:href="#m8116580dfe" x="388.998104" y="294.198739" style="stroke: #000000; stroke-width: 0.8"/>
      </g>
     </g>
     <g id="text_7">
      <!-- 60 -->
      <g transform="translate(382.635604 308.796395) scale(0.1 -0.1)">
       <defs>
        <path id="DejaVuSans-19" d="M 2113 2584 
Q 1688 2584 1439 2293 
Q 1191 2003 1191 1497 
Q 1191 994 1439 701 
Q 1688 409 2113 409 
Q 2538 409 2786 701 
Q 3034 994 3034 1497 
Q 3034 2003 2786 2293 
Q 2538 2584 2113 2584 
z
M 3366 4563 
L 3366 3988 
Q 3128 4100 2886 4159 
Q 2644 4219 2406 4219 
Q 1781 4219 1451 3797 
Q 1122 3375 1075 2522 
Q 1259 2794 1537 2939 
Q 1816 3084 2150 3084 
Q 2853 3084 3261 2657 
Q 3669 2231 3669 1497 
Q 3669 778 3244 343 
Q 2819 -91 2113 -91 
Q 1303 -91 875 529 
Q 447 1150 447 2328 
Q 447 3434 972 4092 
Q 1497 4750 2381 4750 
Q 2619 4750 2861 4703 
Q 3103 4656 3366 4563 
z
" transform="scale(0.015625)"/>
       </defs>
       <use xlink:href="#DejaVuSans-19"/>
       <use xlink:href="#DejaVuSans-13" transform="translate(63.625 0)"/>
      </g>
     </g>
    </g>
    <g id="xtick_8">
     <g id="line2d_15">
      <path d="M 443.917563 294.198739 
L 443.917563 7.2 
" clip-path="url(#pb4c9b248f7)" style="fill: none; stroke: #b0b0b0; stroke-opacity: 0.2; stroke-width: 0.8; stroke-linecap: square"/>
     </g>
     <g id="line2d_16">
      <g>
       <use xlink:href="#m8116580dfe" x="443.917563" y="294.198739" style="stroke: #000000; stroke-width: 0.8"/>
      </g>
     </g>
     <g id="text_8">
      <!-- 70 -->
      <g transform="translate(437.555063 308.796395) scale(0.1 -0.1)">
       <defs>
        <path id="DejaVuSans-1a" d="M 525 4666 
L 3525 4666 
L 3525 4397 
L 1831 0 
L 1172 0 
L 2766 4134 
L 525 4134 
L 525 4666 
z
" transform="scale(0.015625)"/>
       </defs>
       <use xlink:href="#DejaVuSans-1a"/>
       <use xlink:href="#DejaVuSans-13" transform="translate(63.625 0)"/>
      </g>
     </g>
    </g>
    <g id="xtick_9">
     <g id="line2d_17">
      <path d="M 498.837021 294.198739 
L 498.837021 7.2 
" clip-path="url(#pb4c9b248f7)" style="fill: none; stroke: #b0b0b0; stroke-opacity: 0.2; stroke-width: 0.8; stroke-linecap: square"/>
     </g>
     <g id="line2d_18">
      <g>
       <use xlink:href="#m8116580dfe" x="498.837021" y="294.198739" style="stroke: #000000; stroke-width: 0.8"/>
      </g>
     </g>
     <g id="text_9">
      <!-- 80 -->
      <g transform="translate(492.474521 308.796395) scale(0.1 -0.1)">
       <defs>
        <path id="DejaVuSans-1b" d="M 2034 2216 
Q 1584 2216 1326 1975 
Q 1069 1734 1069 1313 
Q 1069 891 1326 650 
Q 1584 409 2034 409 
Q 2484 409 2743 651 
Q 3003 894 3003 1313 
Q 3003 1734 2745 1975 
Q 2488 2216 2034 2216 
z
M 1403 2484 
Q 997 2584 770 2862 
Q 544 3141 544 3541 
Q 544 4100 942 4425 
Q 1341 4750 2034 4750 
Q 2731 4750 3128 4425 
Q 3525 4100 3525 3541 
Q 3525 3141 3298 2862 
Q 3072 2584 2669 2484 
Q 3125 2378 3379 2068 
Q 3634 1759 3634 1313 
Q 3634 634 3220 271 
Q 2806 -91 2034 -91 
Q 1263 -91 848 271 
Q 434 634 434 1313 
Q 434 1759 690 2068 
Q 947 2378 1403 2484 
z
M 1172 3481 
Q 1172 3119 1398 2916 
Q 1625 2713 2034 2713 
Q 2441 2713 2670 2916 
Q 2900 3119 2900 3481 
Q 2900 3844 2670 4047 
Q 2441 4250 2034 4250 
Q 1625 4250 1398 4047 
Q 1172 3844 1172 3481 
z
" transform="scale(0.015625)"/>
       </defs>
       <use xlink:href="#DejaVuSans-1b"/>
       <use xlink:href="#DejaVuSans-13" transform="translate(63.625 0)"/>
      </g>
     </g>
    </g>
    <g id="text_10">
     <!-- FM training cycle (before candidate selection) -->
     <g transform="translate(158.951617 322.797176) scale(0.1 -0.1)">
      <defs>
       <path id="DejaVuSans-29" d="M 628 4666 
L 3309 4666 
L 3309 4134 
L 1259 4134 
L 1259 2759 
L 3109 2759 
L 3109 2228 
L 1259 2228 
L 1259 0 
L 628 0 
L 628 4666 
z
" transform="scale(0.015625)"/>
       <path id="DejaVuSans-30" d="M 628 4666 
L 1569 4666 
L 2759 1491 
L 3956 4666 
L 4897 4666 
L 4897 0 
L 4281 0 
L 4281 4097 
L 3078 897 
L 2444 897 
L 1241 4097 
L 1241 0 
L 628 0 
L 628 4666 
z
" transform="scale(0.015625)"/>
       <path id="DejaVuSans-3" transform="scale(0.015625)"/>
       <path id="DejaVuSans-57" d="M 1172 4494 
L 1172 3500 
L 2356 3500 
L 2356 3053 
L 1172 3053 
L 1172 1153 
Q 1172 725 1289 603 
Q 1406 481 1766 481 
L 2356 481 
L 2356 0 
L 1766 0 
Q 1100 0 847 248 
Q 594 497 594 1153 
L 594 3053 
L 172 3053 
L 172 3500 
L 594 3500 
L 594 4494 
L 1172 4494 
z
" transform="scale(0.015625)"/>
       <path id="DejaVuSans-55" d="M 2631 2963 
Q 2534 3019 2420 3045 
Q 2306 3072 2169 3072 
Q 1681 3072 1420 2755 
Q 1159 2438 1159 1844 
L 1159 0 
L 581 0 
L 581 3500 
L 1159 3500 
L 1159 2956 
Q 1341 3275 1631 3429 
Q 1922 3584 2338 3584 
Q 2397 3584 2469 3576 
Q 2541 3569 2628 3553 
L 2631 2963 
z
" transform="scale(0.015625)"/>
       <path id="DejaVuSans-44" d="M 2194 1759 
Q 1497 1759 1228 1600 
Q 959 1441 959 1056 
Q 959 750 1161 570 
Q 1363 391 1709 391 
Q 2188 391 2477 730 
Q 2766 1069 2766 1631 
L 2766 1759 
L 2194 1759 
z
M 3341 1997 
L 3341 0 
L 2766 0 
L 2766 531 
Q 2569 213 2275 61 
Q 1981 -91 1556 -91 
Q 1019 -91 701 211 
Q 384 513 384 1019 
Q 384 1609 779 1909 
Q 1175 2209 1959 2209 
L 2766 2209 
L 2766 2266 
Q 2766 2663 2505 2880 
Q 2244 3097 1772 3097 
Q 1472 3097 1187 3025 
Q 903 2953 641 2809 
L 641 3341 
Q 956 3463 1253 3523 
Q 1550 3584 1831 3584 
Q 2591 3584 2966 3190 
Q 3341 2797 3341 1997 
z
" transform="scale(0.015625)"/>
       <path id="DejaVuSans-4c" d="M 603 3500 
L 1178 3500 
L 1178 0 
L 603 0 
L 603 3500 
z
M 603 4863 
L 1178 4863 
L 1178 4134 
L 603 4134 
L 603 4863 
z
" transform="scale(0.015625)"/>
       <path id="DejaVuSans-51" d="M 3513 2113 
L 3513 0 
L 2938 0 
L 2938 2094 
Q 2938 2591 2744 2837 
Q 2550 3084 2163 3084 
Q 1697 3084 1428 2787 
Q 1159 2491 1159 1978 
L 1159 0 
L 581 0 
L 581 3500 
L 1159 3500 
L 1159 2956 
Q 1366 3272 1645 3428 
Q 1925 3584 2291 3584 
Q 2894 3584 3203 3211 
Q 3513 2838 3513 2113 
z
" transform="scale(0.015625)"/>
       <path id="DejaVuSans-4a" d="M 2906 1791 
Q 2906 2416 2648 2759 
Q 2391 3103 1925 3103 
Q 1463 3103 1205 2759 
Q 947 2416 947 1791 
Q 947 1169 1205 825 
Q 1463 481 1925 481 
Q 2391 481 2648 825 
Q 2906 1169 2906 1791 
z
M 3481 434 
Q 3481 -459 3084 -895 
Q 2688 -1331 1869 -1331 
Q 1566 -1331 1297 -1286 
Q 1028 -1241 775 -1147 
L 775 -588 
Q 1028 -725 1275 -790 
Q 1522 -856 1778 -856 
Q 2344 -856 2625 -561 
Q 2906 -266 2906 331 
L 2906 616 
Q 2728 306 2450 153 
Q 2172 0 1784 0 
Q 1141 0 747 490 
Q 353 981 353 1791 
Q 353 2603 747 3093 
Q 1141 3584 1784 3584 
Q 2172 3584 2450 3431 
Q 2728 3278 2906 2969 
L 2906 3500 
L 3481 3500 
L 3481 434 
z
" transform="scale(0.015625)"/>
       <path id="DejaVuSans-46" d="M 3122 3366 
L 3122 2828 
Q 2878 2963 2633 3030 
Q 2388 3097 2138 3097 
Q 1578 3097 1268 2742 
Q 959 2388 959 1747 
Q 959 1106 1268 751 
Q 1578 397 2138 397 
Q 2388 397 2633 464 
Q 2878 531 3122 666 
L 3122 134 
Q 2881 22 2623 -34 
Q 2366 -91 2075 -91 
Q 1284 -91 818 406 
Q 353 903 353 1747 
Q 353 2603 823 3093 
Q 1294 3584 2113 3584 
Q 2378 3584 2631 3529 
Q 2884 3475 3122 3366 
z
" transform="scale(0.015625)"/>
       <path id="DejaVuSans-5c" d="M 2059 -325 
Q 1816 -950 1584 -1140 
Q 1353 -1331 966 -1331 
L 506 -1331 
L 506 -850 
L 844 -850 
Q 1081 -850 1212 -737 
Q 1344 -625 1503 -206 
L 1606 56 
L 191 3500 
L 800 3500 
L 1894 763 
L 2988 3500 
L 3597 3500 
L 2059 -325 
z
" transform="scale(0.015625)"/>
       <path id="DejaVuSans-4f" d="M 603 4863 
L 1178 4863 
L 1178 0 
L 603 0 
L 603 4863 
z
" transform="scale(0.015625)"/>
       <path id="DejaVuSans-48" d="M 3597 1894 
L 3597 1613 
L 953 1613 
Q 991 1019 1311 708 
Q 1631 397 2203 397 
Q 2534 397 2845 478 
Q 3156 559 3463 722 
L 3463 178 
Q 3153 47 2828 -22 
Q 2503 -91 2169 -91 
Q 1331 -91 842 396 
Q 353 884 353 1716 
Q 353 2575 817 3079 
Q 1281 3584 2069 3584 
Q 2775 3584 3186 3129 
Q 3597 2675 3597 1894 
z
M 3022 2063 
Q 3016 2534 2758 2815 
Q 2500 3097 2075 3097 
Q 1594 3097 1305 2825 
Q 1016 2553 972 2059 
L 3022 2063 
z
" transform="scale(0.015625)"/>
       <path id="DejaVuSans-b" d="M 1984 4856 
Q 1566 4138 1362 3434 
Q 1159 2731 1159 2009 
Q 1159 1288 1364 580 
Q 1569 -128 1984 -844 
L 1484 -844 
Q 1016 -109 783 600 
Q 550 1309 550 2009 
Q 550 2706 781 3412 
Q 1013 4119 1484 4856 
L 1984 4856 
z
" transform="scale(0.015625)"/>
       <path id="DejaVuSans-45" d="M 3116 1747 
Q 3116 2381 2855 2742 
Q 2594 3103 2138 3103 
Q 1681 3103 1420 2742 
Q 1159 2381 1159 1747 
Q 1159 1113 1420 752 
Q 1681 391 2138 391 
Q 2594 391 2855 752 
Q 3116 1113 3116 1747 
z
M 1159 2969 
Q 1341 3281 1617 3432 
Q 1894 3584 2278 3584 
Q 2916 3584 3314 3078 
Q 3713 2572 3713 1747 
Q 3713 922 3314 415 
Q 2916 -91 2278 -91 
Q 1894 -91 1617 61 
Q 1341 213 1159 525 
L 1159 0 
L 581 0 
L 581 4863 
L 1159 4863 
L 1159 2969 
z
" transform="scale(0.015625)"/>
       <path id="DejaVuSans-49" d="M 2375 4863 
L 2375 4384 
L 1825 4384 
Q 1516 4384 1395 4259 
Q 1275 4134 1275 3809 
L 1275 3500 
L 2222 3500 
L 2222 3053 
L 1275 3053 
L 1275 0 
L 697 0 
L 697 3053 
L 147 3053 
L 147 3500 
L 697 3500 
L 697 3744 
Q 697 4328 969 4595 
Q 1241 4863 1831 4863 
L 2375 4863 
z
" transform="scale(0.015625)"/>
       <path id="DejaVuSans-52" d="M 1959 3097 
Q 1497 3097 1228 2736 
Q 959 2375 959 1747 
Q 959 1119 1226 758 
Q 1494 397 1959 397 
Q 2419 397 2687 759 
Q 2956 1122 2956 1747 
Q 2956 2369 2687 2733 
Q 2419 3097 1959 3097 
z
M 1959 3584 
Q 2709 3584 3137 3096 
Q 3566 2609 3566 1747 
Q 3566 888 3137 398 
Q 2709 -91 1959 -91 
Q 1206 -91 779 398 
Q 353 888 353 1747 
Q 353 2609 779 3096 
Q 1206 3584 1959 3584 
z
" transform="scale(0.015625)"/>
       <path id="DejaVuSans-47" d="M 2906 2969 
L 2906 4863 
L 3481 4863 
L 3481 0 
L 2906 0 
L 2906 525 
Q 2725 213 2448 61 
Q 2172 -91 1784 -91 
Q 1150 -91 751 415 
Q 353 922 353 1747 
Q 353 2572 751 3078 
Q 1150 3584 1784 3584 
Q 2172 3584 2448 3432 
Q 2725 3281 2906 2969 
z
M 947 1747 
Q 947 1113 1208 752 
Q 1469 391 1925 391 
Q 2381 391 2643 752 
Q 2906 1113 2906 1747 
Q 2906 2381 2643 2742 
Q 2381 3103 1925 3103 
Q 1469 3103 1208 2742 
Q 947 2381 947 1747 
z
" transform="scale(0.015625)"/>
       <path id="DejaVuSans-56" d="M 2834 3397 
L 2834 2853 
Q 2591 2978 2328 3040 
Q 2066 3103 1784 3103 
Q 1356 3103 1142 2972 
Q 928 2841 928 2578 
Q 928 2378 1081 2264 
Q 1234 2150 1697 2047 
L 1894 2003 
Q 2506 1872 2764 1633 
Q 3022 1394 3022 966 
Q 3022 478 2636 193 
Q 2250 -91 1575 -91 
Q 1294 -91 989 -36 
Q 684 19 347 128 
L 347 722 
Q 666 556 975 473 
Q 1284 391 1588 391 
Q 1994 391 2212 530 
Q 2431 669 2431 922 
Q 2431 1156 2273 1281 
Q 2116 1406 1581 1522 
L 1381 1569 
Q 847 1681 609 1914 
Q 372 2147 372 2553 
Q 372 3047 722 3315 
Q 1072 3584 1716 3584 
Q 2034 3584 2315 3537 
Q 2597 3491 2834 3397 
z
" transform="scale(0.015625)"/>
       <path id="DejaVuSans-c" d="M 513 4856 
L 1013 4856 
Q 1481 4119 1714 3412 
Q 1947 2706 1947 2009 
Q 1947 1309 1714 600 
Q 1481 -109 1013 -844 
L 513 -844 
Q 928 -128 1133 580 
Q 1338 1288 1338 2009 
Q 1338 2731 1133 3434 
Q 928 4138 513 4856 
z
" transform="scale(0.015625)"/>
      </defs>
      <use xlink:href="#DejaVuSans-29"/>
      <use xlink:href="#DejaVuSans-30" transform="translate(57.515625 0)"/>
      <use xlink:href="#DejaVuSans-3" transform="translate(143.796875 0)"/>
      <use xlink:href="#DejaVuSans-57" transform="translate(175.578125 0)"/>
      <use xlink:href="#DejaVuSans-55" transform="translate(214.78125 0)"/>
      <use xlink:href="#DejaVuSans-44" transform="translate(255.890625 0)"/>
      <use xlink:href="#DejaVuSans-4c" transform="translate(317.171875 0)"/>
      <use xlink:href="#DejaVuSans-51" transform="translate(344.953125 0)"/>
      <use xlink:href="#DejaVuSans-4c" transform="translate(408.328125 0)"/>
      <use xlink:href="#DejaVuSans-51" transform="translate(436.109375 0)"/>
      <use xlink:href="#DejaVuSans-4a" transform="translate(499.484375 0)"/>
      <use xlink:href="#DejaVuSans-3" transform="translate(562.96875 0)"/>
      <use xlink:href="#DejaVuSans-46" transform="translate(594.75 0)"/>
      <use xlink:href="#DejaVuSans-5c" transform="translate(649.734375 0)"/>
      <use xlink:href="#DejaVuSans-46" transform="translate(708.921875 0)"/>
      <use xlink:href="#DejaVuSans-4f" transform="translate(763.90625 0)"/>
      <use xlink:href="#DejaVuSans-48" transform="translate(791.6875 0)"/>
      <use xlink:href="#DejaVuSans-3" transform="translate(853.21875 0)"/>
      <use xlink:href="#DejaVuSans-b" transform="translate(885 0)"/>
      <use xlink:href="#DejaVuSans-45" transform="translate(924.015625 0)"/>
      <use xlink:href="#DejaVuSans-48" transform="translate(987.5 0)"/>
      <use xlink:href="#DejaVuSans-49" transform="translate(1049.03125 0)"/>
      <use xlink:href="#DejaVuSans-52" transform="translate(1084.234375 0)"/>
      <use xlink:href="#DejaVuSans-55" transform="translate(1145.421875 0)"/>
      <use xlink:href="#DejaVuSans-48" transform="translate(1184.328125 0)"/>
      <use xlink:href="#DejaVuSans-3" transform="translate(1245.859375 0)"/>
      <use xlink:href="#DejaVuSans-46" transform="translate(1277.640625 0)"/>
      <use xlink:href="#DejaVuSans-44" transform="translate(1332.625 0)"/>
      <use xlink:href="#DejaVuSans-51" transform="translate(1393.90625 0)"/>
      <use xlink:href="#DejaVuSans-47" transform="translate(1457.28125 0)"/>
      <use xlink:href="#DejaVuSans-4c" transform="translate(1520.765625 0)"/>
      <use xlink:href="#DejaVuSans-47" transform="translate(1548.546875 0)"/>
      <use xlink:href="#DejaVuSans-44" transform="translate(1612.03125 0)"/>
      <use xlink:href="#DejaVuSans-57" transform="translate(1673.3125 0)"/>
      <use xlink:href="#DejaVuSans-48" transform="translate(1712.515625 0)"/>
      <use xlink:href="#DejaVuSans-3" transform="translate(1774.046875 0)"/>
      <use xlink:href="#DejaVuSans-56" transform="translate(1805.828125 0)"/>
      <use xlink:href="#DejaVuSans-48" transform="translate(1857.921875 0)"/>
      <use xlink:href="#DejaVuSans-4f" transform="translate(1919.453125 0)"/>
      <use xlink:href="#DejaVuSans-48" transform="translate(1947.234375 0)"/>
      <use xlink:href="#DejaVuSans-46" transform="translate(2008.765625 0)"/>
      <use xlink:href="#DejaVuSans-57" transform="translate(2063.75 0)"/>
      <use xlink:href="#DejaVuSans-4c" transform="translate(2102.953125 0)"/>
      <use xlink:href="#DejaVuSans-52" transform="translate(2130.734375 0)"/>
      <use xlink:href="#DejaVuSans-51" transform="translate(2191.921875 0)"/>
      <use xlink:href="#DejaVuSans-c" transform="translate(2255.296875 0)"/>
     </g>
    </g>
   </g>
   <g id="matplotlib.axis_2">
    <g id="ytick_1">
     <g id="line2d_19">
      <path d="M 44.103906 282.9326 
L 503.230578 282.9326 
" clip-path="url(#pb4c9b248f7)" style="fill: none; stroke: #b0b0b0; stroke-opacity: 0.2; stroke-width: 0.8; stroke-linecap: square"/>
     </g>
     <g id="line2d_20">
      <defs>
       <path id="m96de2babae" d="M 0 0 
L -3.5 0 
" style="stroke: #000000; stroke-width: 0.8"/>
      </defs>
      <g>
       <use xlink:href="#m96de2babae" x="44.103906" y="282.9326" style="stroke: #000000; stroke-width: 0.8"/>
      </g>
     </g>
     <g id="text_11">
      <!-- 1.5 -->
      <g transform="translate(21.200781 286.731429) scale(0.1 -0.1)">
       <defs>
        <path id="DejaVuSans-11" d="M 684 794 
L 1344 794 
L 1344 0 
L 684 0 
L 684 794 
z
" transform="scale(0.015625)"/>
       </defs>
       <use xlink:href="#DejaVuSans-14"/>
       <use xlink:href="#DejaVuSans-11" transform="translate(63.625 0)"/>
       <use xlink:href="#DejaVuSans-18" transform="translate(95.40625 0)"/>
      </g>
     </g>
    </g>
    <g id="ytick_2">
     <g id="line2d_21">
      <path d="M 44.103906 247.204511 
L 503.230578 247.204511 
" clip-path="url(#pb4c9b248f7)" style="fill: none; stroke: #b0b0b0; stroke-opacity: 0.2; stroke-width: 0.8; stroke-linecap: square"/>
     </g>
     <g id="line2d_22">
      <g>
       <use xlink:href="#m96de2babae" x="44.103906" y="247.204511" style="stroke: #000000; stroke-width: 0.8"/>
      </g>
     </g>
     <g id="text_12">
      <!-- 2.0 -->
      <g transform="translate(21.200781 251.003339) scale(0.1 -0.1)">
       <use xlink:href="#DejaVuSans-15"/>
       <use xlink:href="#DejaVuSans-11" transform="translate(63.625 0)"/>
       <use xlink:href="#DejaVuSans-13" transform="translate(95.40625 0)"/>
      </g>
     </g>
    </g>
    <g id="ytick_3">
     <g id="line2d_23">
      <path d="M 44.103906 211.476422 
L 503.230578 211.476422 
" clip-path="url(#pb4c9b248f7)" style="fill: none; stroke: #b0b0b0; stroke-opacity: 0.2; stroke-width: 0.8; stroke-linecap: square"/>
     </g>
     <g id="line2d_24">
      <g>
       <use xlink:href="#m96de2babae" x="44.103906" y="211.476422" style="stroke: #000000; stroke-width: 0.8"/>
      </g>
     </g>
     <g id="text_13">
      <!-- 2.5 -->
      <g transform="translate(21.200781 215.27525) scale(0.1 -0.1)">
       <use xlink:href="#DejaVuSans-15"/>
       <use xlink:href="#DejaVuSans-11" transform="translate(63.625 0)"/>
       <use xlink:href="#DejaVuSans-18" transform="translate(95.40625 0)"/>
      </g>
     </g>
    </g>
    <g id="ytick_4">
     <g id="line2d_25">
      <path d="M 44.103906 175.748333 
L 503.230578 175.748333 
" clip-path="url(#pb4c9b248f7)" style="fill: none; stroke: #b0b0b0; stroke-opacity: 0.2; stroke-width: 0.8; stroke-linecap: square"/>
     </g>
     <g id="line2d_26">
      <g>
       <use xlink:href="#m96de2babae" x="44.103906" y="175.748333" style="stroke: #000000; stroke-width: 0.8"/>
      </g>
     </g>
     <g id="text_14">
      <!-- 3.0 -->
      <g transform="translate(21.200781 179.547161) scale(0.1 -0.1)">
       <use xlink:href="#DejaVuSans-16"/>
       <use xlink:href="#DejaVuSans-11" transform="translate(63.625 0)"/>
       <use xlink:href="#DejaVuSans-13" transform="translate(95.40625 0)"/>
      </g>
     </g>
    </g>
    <g id="ytick_5">
     <g id="line2d_27">
      <path d="M 44.103906 140.020244 
L 503.230578 140.020244 
" clip-path="url(#pb4c9b248f7)" style="fill: none; stroke: #b0b0b0; stroke-opacity: 0.2; stroke-width: 0.8; stroke-linecap: square"/>
     </g>
     <g id="line2d_28">
      <g>
       <use xlink:href="#m96de2babae" x="44.103906" y="140.020244" style="stroke: #000000; stroke-width: 0.8"/>
      </g>
     </g>
     <g id="text_15">
      <!-- 3.5 -->
      <g transform="translate(21.200781 143.819072) scale(0.1 -0.1)">
       <use xlink:href="#DejaVuSans-16"/>
       <use xlink:href="#DejaVuSans-11" transform="translate(63.625 0)"/>
       <use xlink:href="#DejaVuSans-18" transform="translate(95.40625 0)"/>
      </g>
     </g>
    </g>
    <g id="ytick_6">
     <g id="line2d_29">
      <path d="M 44.103906 104.292154 
L 503.230578 104.292154 
" clip-path="url(#pb4c9b248f7)" style="fill: none; stroke: #b0b0b0; stroke-opacity: 0.2; stroke-width: 0.8; stroke-linecap: square"/>
     </g>
     <g id="line2d_30">
      <g>
       <use xlink:href="#m96de2babae" x="44.103906" y="104.292154" style="stroke: #000000; stroke-width: 0.8"/>
      </g>
     </g>
     <g id="text_16">
      <!-- 4.0 -->
      <g transform="translate(21.200781 108.090982) scale(0.1 -0.1)">
       <use xlink:href="#DejaVuSans-17"/>
       <use xlink:href="#DejaVuSans-11" transform="translate(63.625 0)"/>
       <use xlink:href="#DejaVuSans-13" transform="translate(95.40625 0)"/>
      </g>
     </g>
    </g>
    <g id="ytick_7">
     <g id="line2d_31">
      <path d="M 44.103906 68.564065 
L 503.230578 68.564065 
" clip-path="url(#pb4c9b248f7)" style="fill: none; stroke: #b0b0b0; stroke-opacity: 0.2; stroke-width: 0.8; stroke-linecap: square"/>
     </g>
     <g id="line2d_32">
      <g>
       <use xlink:href="#m96de2babae" x="44.103906" y="68.564065" style="stroke: #000000; stroke-width: 0.8"/>
      </g>
     </g>
     <g id="text_17">
      <!-- 4.5 -->
      <g transform="translate(21.200781 72.362893) scale(0.1 -0.1)">
       <use xlink:href="#DejaVuSans-17"/>
       <use xlink:href="#DejaVuSans-11" transform="translate(63.625 0)"/>
       <use xlink:href="#DejaVuSans-18" transform="translate(95.40625 0)"/>
      </g>
     </g>
    </g>
    <g id="ytick_8">
     <g id="line2d_33">
      <path d="M 44.103906 32.835976 
L 503.230578 32.835976 
" clip-path="url(#pb4c9b248f7)" style="fill: none; stroke: #b0b0b0; stroke-opacity: 0.2; stroke-width: 0.8; stroke-linecap: square"/>
     </g>
     <g id="line2d_34">
      <g>
       <use xlink:href="#m96de2babae" x="44.103906" y="32.835976" style="stroke: #000000; stroke-width: 0.8"/>
      </g>
     </g>
     <g id="text_18">
      <!-- 5.0 -->
      <g transform="translate(21.200781 36.634804) scale(0.1 -0.1)">
       <use xlink:href="#DejaVuSans-18"/>
       <use xlink:href="#DejaVuSans-11" transform="translate(63.625 0)"/>
       <use xlink:href="#DejaVuSans-13" transform="translate(95.40625 0)"/>
      </g>
     </g>
    </g>
    <g id="text_19">
     <!-- True objective at FM argmin (eV) -->
     <g transform="translate(14.798438 232.344682) rotate(-90) scale(0.1 -0.1)">
      <defs>
       <path id="DejaVuSans-37" d="M -19 4666 
L 3928 4666 
L 3928 4134 
L 2272 4134 
L 2272 0 
L 1638 0 
L 1638 4134 
L -19 4134 
L -19 4666 
z
" transform="scale(0.015625)"/>
       <path id="DejaVuSans-58" d="M 544 1381 
L 544 3500 
L 1119 3500 
L 1119 1403 
Q 1119 906 1312 657 
Q 1506 409 1894 409 
Q 2359 409 2629 706 
Q 2900 1003 2900 1516 
L 2900 3500 
L 3475 3500 
L 3475 0 
L 2900 0 
L 2900 538 
Q 2691 219 2414 64 
Q 2138 -91 1772 -91 
Q 1169 -91 856 284 
Q 544 659 544 1381 
z
M 1991 3584 
L 1991 3584 
z
" transform="scale(0.015625)"/>
       <path id="DejaVuSans-4d" d="M 603 3500 
L 1178 3500 
L 1178 -63 
Q 1178 -731 923 -1031 
Q 669 -1331 103 -1331 
L -116 -1331 
L -116 -844 
L 38 -844 
Q 366 -844 484 -692 
Q 603 -541 603 -63 
L 603 3500 
z
M 603 4863 
L 1178 4863 
L 1178 4134 
L 603 4134 
L 603 4863 
z
" transform="scale(0.015625)"/>
       <path id="DejaVuSans-59" d="M 191 3500 
L 800 3500 
L 1894 563 
L 2988 3500 
L 3597 3500 
L 2284 0 
L 1503 0 
L 191 3500 
z
" transform="scale(0.015625)"/>
       <path id="DejaVuSans-50" d="M 3328 2828 
Q 3544 3216 3844 3400 
Q 4144 3584 4550 3584 
Q 5097 3584 5394 3201 
Q 5691 2819 5691 2113 
L 5691 0 
L 5113 0 
L 5113 2094 
Q 5113 2597 4934 2840 
Q 4756 3084 4391 3084 
Q 3944 3084 3684 2787 
Q 3425 2491 3425 1978 
L 3425 0 
L 2847 0 
L 2847 2094 
Q 2847 2600 2669 2842 
Q 2491 3084 2119 3084 
Q 1678 3084 1418 2786 
Q 1159 2488 1159 1978 
L 1159 0 
L 581 0 
L 581 3500 
L 1159 3500 
L 1159 2956 
Q 1356 3278 1631 3431 
Q 1906 3584 2284 3584 
Q 2666 3584 2933 3390 
Q 3200 3197 3328 2828 
z
" transform="scale(0.015625)"/>
       <path id="DejaVuSans-39" d="M 1831 0 
L 50 4666 
L 709 4666 
L 2188 738 
L 3669 4666 
L 4325 4666 
L 2547 0 
L 1831 0 
z
" transform="scale(0.015625)"/>
      </defs>
      <use xlink:href="#DejaVuSans-37"/>
      <use xlink:href="#DejaVuSans-55" transform="translate(46.375 0)"/>
      <use xlink:href="#DejaVuSans-58" transform="translate(87.484375 0)"/>
      <use xlink:href="#DejaVuSans-48" transform="translate(150.859375 0)"/>
      <use xlink:href="#DejaVuSans-3" transform="translate(212.390625 0)"/>
      <use xlink:href="#DejaVuSans-52" transform="translate(244.171875 0)"/>
      <use xlink:href="#DejaVuSans-45" transform="translate(305.359375 0)"/>
      <use xlink:href="#DejaVuSans-4d" transform="translate(368.84375 0)"/>
      <use xlink:href="#DejaVuSans-48" transform="translate(396.625 0)"/>
      <use xlink:href="#DejaVuSans-46" transform="translate(458.15625 0)"/>
      <use xlink:href="#DejaVuSans-57" transform="translate(513.140625 0)"/>
      <use xlink:href="#DejaVuSans-4c" transform="translate(552.34375 0)"/>
      <use xlink:href="#DejaVuSans-59" transform="translate(580.125 0)"/>
      <use xlink:href="#DejaVuSans-48" transform="translate(639.3125 0)"/>
      <use xlink:href="#DejaVuSans-3" transform="translate(700.84375 0)"/>
      <use xlink:href="#DejaVuSans-44" transform="translate(732.625 0)"/>
      <use xlink:href="#DejaVuSans-57" transform="translate(793.90625 0)"/>
      <use xlink:href="#DejaVuSans-3" transform="translate(833.109375 0)"/>
      <use xlink:href="#DejaVuSans-29" transform="translate(864.890625 0)"/>
      <use xlink:href="#DejaVuSans-30" transform="translate(922.40625 0)"/>
      <use xlink:href="#DejaVuSans-3" transform="translate(1008.6875 0)"/>
      <use xlink:href="#DejaVuSans-44" transform="translate(1040.46875 0)"/>
      <use xlink:href="#DejaVuSans-55" transform="translate(1101.75 0)"/>
      <use xlink:href="#DejaVuSans-4a" transform="translate(1141.109375 0)"/>
      <use xlink:href="#DejaVuSans-50" transform="translate(1204.59375 0)"/>
      <use xlink:href="#DejaVuSans-4c" transform="translate(1302 0)"/>
      <use xlink:href="#DejaVuSans-51" transform="translate(1329.78125 0)"/>
      <use xlink:href="#DejaVuSans-3" transform="translate(1393.15625 0)"/>
      <use xlink:href="#DejaVuSans-b" transform="translate(1424.9375 0)"/>
      <use xlink:href="#DejaVuSans-48" transform="translate(1463.953125 0)"/>
      <use xlink:href="#DejaVuSans-39" transform="translate(1525.484375 0)"/>
      <use xlink:href="#DejaVuSans-c" transform="translate(1593.890625 0)"/>
     </g>
    </g>
   </g>
   <g id="line2d_35">
    <path d="M 64.9733 129.744845 
L 70.465246 135.089767 
L 75.957192 162.457484 
L 81.449138 217.735983 
L 86.941084 210.047298 
L 92.43303 157.39124 
L 97.924975 214.906319 
L 103.416921 162.235969 
L 108.908867 144.128974 
L 114.400813 225.989172 
L 119.892759 205.009638 
L 125.384705 214.756261 
L 130.87665 238.565459 
L 136.368596 204.359387 
L 141.860542 230.733862 
L 147.352488 249.255303 
L 152.844434 165.458643 
L 158.33638 261.502892 
L 163.828325 204.359387 
L 169.320271 272.935881 
L 174.812217 261.502892 
L 180.304163 272.935881 
L 185.796109 243.052907 
L 191.288054 281.153342 
L 196.78 230.733862 
L 202.271946 249.584002 
L 207.763892 249.383925 
L 213.255838 278.516609 
L 218.747784 249.383925 
L 224.239729 279.674199 
L 229.731675 258.351675 
L 235.223621 279.674199 
L 240.715567 281.153342 
L 246.207513 242.073958 
L 251.699459 278.516609 
L 257.191404 246.804357 
L 262.68335 281.153342 
L 268.175296 278.516609 
L 273.667242 279.674199 
L 279.159188 272.935881 
L 284.651134 272.935881 
L 290.143079 279.674199 
L 295.635025 278.516609 
L 301.126971 279.674199 
L 306.618917 281.153342 
L 312.110863 279.674199 
L 317.602809 278.516609 
L 323.094754 279.674199 
L 328.5867 279.674199 
L 334.078646 279.674199 
L 339.570592 279.674199 
L 345.062538 279.674199 
L 350.554484 279.674199 
L 356.046429 279.674199 
L 361.538375 279.674199 
L 367.030321 279.674199 
L 372.522267 279.674199 
L 378.014213 279.674199 
L 383.506159 278.516609 
L 388.998104 279.674199 
L 394.49005 279.674199 
L 399.981996 279.674199 
L 405.473942 279.674199 
L 410.965888 279.674199 
L 416.457833 281.153342 
L 421.949779 279.674199 
L 427.441725 281.153342 
L 432.933671 279.674199 
L 438.425617 279.674199 
L 443.917563 279.674199 
L 449.409508 279.674199 
L 454.901454 279.674199 
L 460.3934 278.516609 
L 465.885346 279.674199 
L 471.377292 279.674199 
L 476.869238 281.153342 
L 482.361183 279.674199 
" clip-path="url(#pb4c9b248f7)" style="fill: none; stroke: #2ca02c; stroke-width: 1.5; stroke-linecap: square"/>
   </g>
   <g id="line2d_36">
    <path d="M 64.9733 129.744845 
L 70.465246 163.736549 
L 75.957192 117.0185 
L 81.449138 192.962126 
L 86.941084 131.745618 
L 92.43303 192.962126 
L 97.924975 230.733862 
L 103.416921 210.118755 
L 108.908867 208.510991 
L 114.400813 173.147328 
L 119.892759 191.190013 
L 125.384705 81.619109 
L 130.87665 122.992236 
L 136.368596 176.784447 
L 141.860542 175.934119 
L 147.352488 230.498057 
L 152.844434 248.104859 
L 158.33638 249.255303 
L 163.828325 230.65526 
L 169.320271 249.383925 
L 174.812217 243.052907 
L 180.304163 258.351675 
L 185.796109 258.351675 
L 191.288054 258.351675 
L 196.78 276.865971 
L 202.271946 278.516609 
L 207.763892 258.351675 
L 213.255838 279.674199 
L 218.747784 279.674199 
L 224.239729 261.502892 
L 229.731675 276.865971 
L 235.223621 253.707023 
L 240.715567 279.674199 
L 246.207513 279.674199 
L 251.699459 150.795835 
L 257.191404 281.153342 
L 262.68335 278.516609 
L 268.175296 279.674199 
L 273.667242 278.516609 
L 279.159188 279.674199 
L 284.651134 279.674199 
L 290.143079 281.153342 
L 295.635025 279.674199 
L 301.126971 279.674199 
L 306.618917 281.153342 
L 312.110863 279.674199 
L 317.602809 279.674199 
L 323.094754 279.674199 
L 328.5867 279.674199 
L 334.078646 279.674199 
L 339.570592 279.674199 
L 345.062538 279.674199 
L 350.554484 279.674199 
L 356.046429 279.674199 
L 361.538375 279.674199 
L 367.030321 279.674199 
L 372.522267 279.674199 
L 378.014213 279.674199 
L 383.506159 279.674199 
L 388.998104 279.674199 
L 394.49005 281.153342 
L 399.981996 279.674199 
L 405.473942 281.153342 
L 410.965888 279.674199 
L 416.457833 279.674199 
L 421.949779 279.674199 
L 427.441725 279.674199 
L 432.933671 279.674199 
L 438.425617 279.674199 
L 443.917563 279.674199 
L 449.409508 279.674199 
L 454.901454 279.674199 
L 460.3934 279.674199 
L 465.885346 279.674199 
L 471.377292 279.674199 
L 476.869238 279.674199 
L 482.361183 279.674199 
" clip-path="url(#pb4c9b248f7)" style="fill: none; stroke-dasharray: 1.5,2.475; stroke-dashoffset: 0; stroke: #008080; stroke-width: 1.5"/>
   </g>
   <g id="line2d_37">
    <path d="M 64.9733 129.744845 
L 70.465246 158.856092 
L 75.957192 184.723229 
L 81.449138 162.464629 
L 86.941084 214.063136 
L 92.43303 154.811672 
L 97.924975 211.91945 
L 103.416921 150.795835 
L 108.908867 144.128974 
L 114.400813 204.359387 
L 119.892759 240.616252 
L 125.384705 236.185968 
L 130.87665 205.631307 
L 136.368596 258.351675 
L 141.860542 240.609106 
L 147.352488 278.516609 
L 152.844434 238.565459 
L 158.33638 258.351675 
L 163.828325 106.607334 
L 169.320271 167.04497 
L 174.812217 261.502892 
L 180.304163 278.516609 
L 185.796109 230.498057 
L 191.288054 258.351675 
L 196.78 208.839689 
L 202.271946 276.865971 
L 207.763892 239.358623 
L 213.255838 246.804357 
L 218.747784 225.260319 
L 224.239729 225.260319 
L 229.731675 230.733862 
L 235.223621 205.009638 
L 240.715567 272.935881 
L 246.207513 278.516609 
L 251.699459 279.674199 
L 257.191404 276.865971 
L 262.68335 281.153342 
L 268.175296 281.153342 
L 273.667242 281.153342 
L 279.159188 279.674199 
L 284.651134 279.674199 
L 290.143079 279.674199 
L 295.635025 279.674199 
L 301.126971 279.674199 
L 306.618917 281.153342 
L 312.110863 279.674199 
L 317.602809 279.674199 
L 323.094754 279.674199 
L 328.5867 279.674199 
L 334.078646 279.674199 
L 339.570592 279.674199 
L 345.062538 279.674199 
L 350.554484 279.674199 
L 356.046429 279.674199 
L 361.538375 279.674199 
L 367.030321 279.674199 
L 372.522267 279.674199 
L 378.014213 278.516609 
L 383.506159 279.674199 
L 388.998104 279.674199 
L 394.49005 279.674199 
L 399.981996 279.674199 
L 405.473942 279.674199 
L 410.965888 279.674199 
L 416.457833 279.674199 
L 421.949779 279.674199 
L 427.441725 279.674199 
L 432.933671 279.674199 
L 438.425617 279.674199 
L 443.917563 279.674199 
L 449.409508 279.674199 
L 454.901454 279.674199 
L 460.3934 279.674199 
L 465.885346 279.674199 
L 471.377292 281.153342 
L 476.869238 279.674199 
L 482.361183 279.674199 
" clip-path="url(#pb4c9b248f7)" style="fill: none; stroke-dasharray: 5.55,2.4; stroke-dashoffset: 0; stroke: #ff7f0e; stroke-width: 1.5"/>
   </g>
   <g id="patch_3">
    <path d="M 44.103906 294.198739 
L 44.103906 7.2 
" style="fill: none; stroke: #000000; stroke-width: 0.8; stroke-linejoin: miter; stroke-linecap: square"/>
   </g>
   <g id="patch_4">
    <path d="M 503.230578 294.198739 
L 503.230578 7.2 
" style="fill: none; stroke: #000000; stroke-width: 0.8; stroke-linejoin: miter; stroke-linecap: square"/>
   </g>
   <g id="patch_5">
    <path d="M 44.103906 294.198739 
L 503.230578 294.198739 
" style="fill: none; stroke: #000000; stroke-width: 0.8; stroke-linejoin: miter; stroke-linecap: square"/>
   </g>
   <g id="patch_6">
    <path d="M 44.103906 7.2 
L 503.230578 7.2 
" style="fill: none; stroke: #000000; stroke-width: 0.8; stroke-linejoin: miter; stroke-linecap: square"/>
   </g>
   <g id="legend_1">
    <g id="patch_7">
     <path d="M 374.710578 49.601875 
L 497.630578 49.601875 
Q 499.230578 49.601875 499.230578 48.001875 
L 499.230578 12.8 
Q 499.230578 11.2 497.630578 11.2 
L 374.710578 11.2 
Q 373.110578 11.2 373.110578 12.8 
L 373.110578 48.001875 
Q 373.110578 49.601875 374.710578 49.601875 
z
" style="fill: #ffffff; opacity: 0.8; stroke: #cccccc; stroke-linejoin: miter"/>
    </g>
    <g id="line2d_38">
     <path d="M 376.310578 17.67875 
L 384.310578 17.67875 
L 392.310578 17.67875 
" style="fill: none; stroke: #2ca02c; stroke-width: 1.5; stroke-linecap: square"/>
    </g>
    <g id="text_20">
     <!-- XY-p1 -->
     <g transform="translate(398.710578 20.47875) scale(0.08 -0.08)">
      <defs>
       <path id="DejaVuSans-3b" d="M 403 4666 
L 1081 4666 
L 2241 2931 
L 3406 4666 
L 4084 4666 
L 2584 2425 
L 4184 0 
L 3506 0 
L 2194 1984 
L 872 0 
L 191 0 
L 1856 2491 
L 403 4666 
z
" transform="scale(0.015625)"/>
       <path id="DejaVuSans-3c" d="M -13 4666 
L 666 4666 
L 1959 2747 
L 3244 4666 
L 3922 4666 
L 2272 2222 
L 2272 0 
L 1638 0 
L 1638 2222 
L -13 4666 
z
" transform="scale(0.015625)"/>
       <path id="DejaVuSans-10" d="M 313 2009 
L 1997 2009 
L 1997 1497 
L 313 1497 
L 313 2009 
z
" transform="scale(0.015625)"/>
       <path id="DejaVuSans-53" d="M 1159 525 
L 1159 -1331 
L 581 -1331 
L 581 3500 
L 1159 3500 
L 1159 2969 
Q 1341 3281 1617 3432 
Q 1894 3584 2278 3584 
Q 2916 3584 3314 3078 
Q 3713 2572 3713 1747 
Q 3713 922 3314 415 
Q 2916 -91 2278 -91 
Q 1894 -91 1617 61 
Q 1341 213 1159 525 
z
M 3116 1747 
Q 3116 2381 2855 2742 
Q 2594 3103 2138 3103 
Q 1681 3103 1420 2742 
Q 1159 2381 1159 1747 
Q 1159 1113 1420 752 
Q 1681 391 2138 391 
Q 2594 391 2855 752 
Q 3116 1113 3116 1747 
z
" transform="scale(0.015625)"/>
      </defs>
      <use xlink:href="#DejaVuSans-3b"/>
      <use xlink:href="#DejaVuSans-3c" transform="translate(68.5 0)"/>
      <use xlink:href="#DejaVuSans-10" transform="translate(117.71875 0)"/>
      <use xlink:href="#DejaVuSans-53" transform="translate(153.796875 0)"/>
      <use xlink:href="#DejaVuSans-14" transform="translate(217.28125 0)"/>
     </g>
    </g>
    <g id="line2d_39">
     <path d="M 376.310578 29.679375 
L 384.310578 29.679375 
L 392.310578 29.679375 
" style="fill: none; stroke-dasharray: 1.5,2.475; stroke-dashoffset: 0; stroke: #008080; stroke-width: 1.5"/>
    </g>
    <g id="text_21">
     <!-- XY-p3 -->
     <g transform="translate(398.710578 32.479375) scale(0.08 -0.08)">
      <use xlink:href="#DejaVuSans-3b"/>
      <use xlink:href="#DejaVuSans-3c" transform="translate(68.5 0)"/>
      <use xlink:href="#DejaVuSans-10" transform="translate(117.71875 0)"/>
      <use xlink:href="#DejaVuSans-53" transform="translate(153.796875 0)"/>
      <use xlink:href="#DejaVuSans-16" transform="translate(217.28125 0)"/>
     </g>
    </g>
    <g id="line2d_40">
     <path d="M 376.310578 41.68 
L 384.310578 41.68 
L 392.310578 41.68 
" style="fill: none; stroke-dasharray: 5.55,2.4; stroke-dashoffset: 0; stroke: #ff7f0e; stroke-width: 1.5"/>
    </g>
    <g id="text_22">
     <!-- LargePenalty-alpha1000 -->
     <g transform="translate(398.710578 44.48) scale(0.08 -0.08)">
      <defs>
       <path id="DejaVuSans-2f" d="M 628 4666 
L 1259 4666 
L 1259 531 
L 3531 531 
L 3531 0 
L 628 0 
L 628 4666 
z
" transform="scale(0.015625)"/>
       <path id="DejaVuSans-33" d="M 1259 4147 
L 1259 2394 
L 2053 2394 
Q 2494 2394 2734 2622 
Q 2975 2850 2975 3272 
Q 2975 3691 2734 3919 
Q 2494 4147 2053 4147 
L 1259 4147 
z
M 628 4666 
L 2053 4666 
Q 2838 4666 3239 4311 
Q 3641 3956 3641 3272 
Q 3641 2581 3239 2228 
Q 2838 1875 2053 1875 
L 1259 1875 
L 1259 0 
L 628 0 
L 628 4666 
z
" transform="scale(0.015625)"/>
       <path id="DejaVuSans-4b" d="M 3513 2113 
L 3513 0 
L 2938 0 
L 2938 2094 
Q 2938 2591 2744 2837 
Q 2550 3084 2163 3084 
Q 1697 3084 1428 2787 
Q 1159 2491 1159 1978 
L 1159 0 
L 581 0 
L 581 4863 
L 1159 4863 
L 1159 2956 
Q 1366 3272 1645 3428 
Q 1925 3584 2291 3584 
Q 2894 3584 3203 3211 
Q 3513 2838 3513 2113 
z
" transform="scale(0.015625)"/>
      </defs>
      <use xlink:href="#DejaVuSans-2f"/>
      <use xlink:href="#DejaVuSans-44" transform="translate(55.71875 0)"/>
      <use xlink:href="#DejaVuSans-55" transform="translate(117 0)"/>
      <use xlink:href="#DejaVuSans-4a" transform="translate(156.359375 0)"/>
      <use xlink:href="#DejaVuSans-48" transform="translate(219.84375 0)"/>
      <use xlink:href="#DejaVuSans-33" transform="translate(281.375 0)"/>
      <use xlink:href="#DejaVuSans-48" transform="translate(338.109375 0)"/>
      <use xlink:href="#DejaVuSans-51" transform="translate(399.640625 0)"/>
      <use xlink:href="#DejaVuSans-44" transform="translate(463.015625 0)"/>
      <use xlink:href="#DejaVuSans-4f" transform="translate(524.296875 0)"/>
      <use xlink:href="#DejaVuSans-57" transform="translate(552.078125 0)"/>
      <use xlink:href="#DejaVuSans-5c" transform="translate(591.28125 0)"/>
      <use xlink:href="#DejaVuSans-10" transform="translate(648.71875 0)"/>
      <use xlink:href="#DejaVuSans-44" transform="translate(684.796875 0)"/>
      <use xlink:href="#DejaVuSans-4f" transform="translate(746.078125 0)"/>
      <use xlink:href="#DejaVuSans-53" transform="translate(773.859375 0)"/>
      <use xlink:href="#DejaVuSans-4b" transform="translate(837.34375 0)"/>
      <use xlink:href="#DejaVuSans-44" transform="translate(900.71875 0)"/>
      <use xlink:href="#DejaVuSans-14" transform="translate(962 0)"/>
      <use xlink:href="#DejaVuSans-13" transform="translate(1025.625 0)"/>
      <use xlink:href="#DejaVuSans-13" transform="translate(1089.25 0)"/>
      <use xlink:href="#DejaVuSans-13" transform="translate(1152.875 0)"/>
     </g>
    </g>
   </g>
  </g>
 </g>
 <defs>
  <clipPath id="pb4c9b248f7">
   <rect x="44.103906" y="7.2" width="459.126671" height="286.998739"/>
  </clipPath>
 </defs>
</svg>
