<?xml version="1.0" encoding="utf-8" standalone="no"?>
<!DOCTYPE svg PUBLIC "-//W3C//DTD SVG 1.1//EN"
  "http://www.w3.org/Graphics/SVG/1.1/DTD/svg11.dtd">
<svg xmlns:xlink="http://www.w3.org/1999/xlink" width="469.199512pt" height="332.39952pt" viewBox="0 0 469.199512 332.39952" xmlns="http://www.w3.org/2000/svg" version="1.1">
 <metadata>
  <rdf:RDF xmlns:dc="http://purl.org/dc/elements/1.1/" xmlns:cc="http://creativecommons.org/ns#" xmlns:rdf="http://www.w3.org/1999/02/22-rdf-syntax-ns#">
   <cc:Work>
    <dc:type rdf:resource="http://purl.org/dc/dcmitype/StillImage"/>
    <dc:date>2026-10-09T11:06:10.297941</dc:date>
    <dc:format>image/svg+xml</dc:format>
    <dc:creator>
     <cc:Agent>
      <dc:title>Matplotlib v3.11.1, https://matplotlib.org/</dc:title>
     </cc:Agent>
    </dc:creator>
   </cc:Work>
  </rdf:RDF>
 </metadata>
 <defs>
  <style type="text/css">*{stroke-linejoin: round; stroke-linecap: butt}</style>
 </defs>
 <g id="figure_1">
  <g id="patch_1">
   <path d="M 0 332.39952 
L 469.199512 332.39952 
L 469.199512 0 
L 0 0 
z
" style="fill: #ffffff"/>
  </g>
  <g id="axes_1">
   <g id="patch_2">
    <path d="M 46.694297 292.198661 
L 459.569126 292.198661 
L 459.569126 7.2 
L 46.694297 7.2 
z
" style="fill: #ffffff"/>
   </g>
   <g id="FillBetweenPolyCollection_1">
    <defs>
     <path id="m346d550b39" d="M 216.659725 -172.72113 
L 216.659725 -92.829387 
L 250.996406 -176.5999 
L 282.32826 -177.447076 
L 316.664942 -166.881073 
L 347.996796 -158.829804 
L 382.333477 -179.471231 
L 413.665331 -127.692456 
L 448.002012 -138.223418 
L 448.002012 -166.031835 
L 448.002012 -166.031835 
L 413.665331 -155.719367 
L 382.333477 -212.884206 
L 347.996796 -195.90151 
L 316.664942 -312.245035 
L 282.32826 -204.020801 
L 250.996406 -292.941364 
L 216.659725 -172.72113 
z
" style="stroke: #777777; stroke-opacity: 0.07"/>
    </defs>
    <g clip-path="url(#pc884472197)">
     <use xlink:href="#m346d550b39" x="0" y="332.39952" style="fill: #777777; fill-opacity: 0.07; stroke: #777777; stroke-opacity: 0.07"/>
    </g>
   </g>
   <g id="FillBetweenPolyCollection_2">
    <defs>
     <path id="mdf769d3242" d="M 216.659725 -171.101497 
L 216.659725 -92.829387 
L 250.996406 -174.748891 
L 282.32826 -169.616361 
L 316.664942 -159.029746 
L 347.996796 -160.633403 
L 382.333477 -130.170087 
L 413.665331 -126.101166 
L 448.002012 -141.004054 
L 448.002012 -188.788112 
L 448.002012 -188.788112 
L 413.665331 -194.264872 
L 382.333477 -187.312252 
L 347.996796 -199.292277 
L 316.664942 -178.053086 
L 282.32826 -228.176671 
L 250.996406 -292.941364 
L 216.659725 -171.101497 
z
" style="stroke: #9467bd; stroke-opacity: 0.07"/>
    </defs>
    <g clip-path="url(#pc884472197)">
     <use xlink:href="#mdf769d3242" x="0" y="332.39952" style="fill: #9467bd; fill-opacity: 0.07; stroke: #9467bd; stroke-opacity: 0.07"/>
    </g>
   </g>
   <g id="FillBetweenPolyCollection_3">
    <defs>
     <path id="m10a732dad5" d="M 216.659725 -156.821109 
L 216.659725 -80.400008 
L 250.996406 -174.748891 
L 282.32826 -180.301917 
L 316.664942 -192.265453 
L 347.996796 -170.931443 
L 382.333477 -169.195865 
L 413.665331 -189.34259 
L 448.002012 -187.598767 
L 448.002012 -214.360066 
L 448.002012 -214.360066 
L 413.665331 -227.894279 
L 382.333477 -206.123283 
L 347.996796 -220.96021 
L 316.664942 -265.425645 
L 282.32826 -292.941364 
L 250.996406 -292.941364 
L 216.659725 -156.821109 
z
" style="stroke: #1f77b4; stroke-opacity: 0.07"/>
    </defs>
    <g clip-path="url(#pc884472197)">
     <use xlink:href="#m10a732dad5" x="0" y="332.39952" style="fill: #1f77b4; fill-opacity: 0.07; stroke: #1f77b4; stroke-opacity: 0.07"/>
    </g>
   </g>
   <g id="FillBetweenPolyCollection_4">
    <defs>
     <path id="m56e523e906" d="M 216.659725 -143.198777 
L 216.659725 -66.777676 
L 250.996406 -174.748891 
L 282.32826 -174.748891 
L 316.664942 -174.748891 
L 347.996796 -176.5999 
L 382.333477 -176.5999 
L 413.665331 -182.581667 
L 448.002012 -176.5999 
L 448.002012 -279.242251 
L 448.002012 -279.242251 
L 413.665331 -269.286379 
L 382.333477 -265.543137 
L 347.996796 -292.941364 
L 316.664942 -279.242251 
L 282.32826 -292.941364 
L 250.996406 -292.941364 
L 216.659725 -143.198777 
z
" style="stroke: #ff7f0e; stroke-opacity: 0.07"/>
    </defs>
    <g clip-path="url(#pc884472197)">
     <use xlink:href="#m56e523e906" x="0" y="332.39952" style="fill: #ff7f0e; fill-opacity: 0.07; stroke: #ff7f0e; stroke-opacity: 0.07"/>
    </g>
   </g>
   <g id="FillBetweenPolyCollection_5">
    <defs>
     <path id="mf37aab153b" d="M 216.659725 -129.576445 
L 216.659725 -53.155344 
L 250.996406 -174.748891 
L 282.32826 -174.748891 
L 316.664942 -174.748891 
L 347.996796 -174.748891 
L 382.333477 -174.748891 
L 413.665331 -174.748891 
L 448.002012 -174.748891 
L 448.002012 -292.941364 
L 448.002012 -292.941364 
L 413.665331 -292.941364 
L 382.333477 -292.941364 
L 347.996796 -292.941364 
L 316.664942 -292.941364 
L 282.32826 -292.941364 
L 250.996406 -292.941364 
L 216.659725 -129.576445 
z
" style="stroke: #2ca02c; stroke-opacity: 0.07"/>
    </defs>
    <g clip-path="url(#pc884472197)">
     <use xlink:href="#mf37aab153b" x="0" y="332.39952" style="fill: #2ca02c; fill-opacity: 0.07; stroke: #2ca02c; stroke-opacity: 0.07"/>
    </g>
   </g>
   <g id="matplotlib.axis_1">
    <g id="xtick_1">
     <g id="line2d_1">
      <defs>
       <path id="m99d5fc5e68" d="M 0 0 
L 0 3.5 
" style="stroke: #000000; stroke-width: 0.8"/>
      </defs>
      <g>
       <use xlink:href="#m99d5fc5e68" x="46.694297" y="292.198661" style="stroke: #000000; stroke-width: 0.8"/>
      </g>
     </g>
     <g id="text_1">
      <!-- 0 -->
      <g transform="translate(43.194922 307.556082) scale(0.11 -0.11)">
       <defs>
        <path id="DejaVuSans-13" d="M 2034 4250 
Q 1547 4250 1301 3770 
Q 1056 3291 1056 2328 
Q 1056 1369 1301 889 
Q 1547 409 2034 409 
Q 2525 409 2770 889 
Q 3016 1369 3016 2328 
Q 3016 3291 2770 3770 
Q 2525 4250 2034 4250 
z
M 2034 4750 
Q 2819 4750 3233 4129 
Q 3647 3509 3647 2328 
Q 3647 1150 3233 529 
Q 2819 -91 2034 -91 
Q 1250 -91 836 529 
Q 422 1150 422 2328 
Q 422 3509 836 4129 
Q 1250 4750 2034 4750 
z
" transform="scale(0.015625)"/>
       </defs>
       <use xlink:href="#DejaVuSans-13"/>
      </g>
     </g>
    </g>
    <g id="xtick_2">
     <g id="line2d_2">
      <g>
       <use xlink:href="#m99d5fc5e68" x="119.659336" y="292.198661" style="stroke: #000000; stroke-width: 0.8"/>
      </g>
     </g>
     <g id="text_2">
      <!-- .01 -->
      <g transform="translate(110.912617 307.556082) scale(0.11 -0.11)">
       <defs>
        <path id="DejaVuSans-11" d="M 684 794 
L 1344 794 
L 1344 0 
L 684 0 
L 684 794 
z
" transform="scale(0.015625)"/>
        <path id="DejaVuSans-14" d="M 794 531 
L 1825 531 
L 1825 4091 
L 703 3866 
L 703 4441 
L 1819 4666 
L 2450 4666 
L 2450 531 
L 3481 531 
L 3481 0 
L 794 0 
L 794 531 
z
" transform="scale(0.015625)"/>
       </defs>
       <use xlink:href="#DejaVuSans-11"/>
       <use xlink:href="#DejaVuSans-13" transform="translate(31.78125 0)"/>
       <use xlink:href="#DejaVuSans-14" transform="translate(95.40625 0)"/>
      </g>
     </g>
    </g>
    <g id="xtick_3">
     <g id="line2d_3">
      <g>
       <use xlink:href="#m99d5fc5e68" x="185.327871" y="292.198661" style="stroke: #000000; stroke-width: 0.8"/>
      </g>
     </g>
     <g id="text_3">
      <!-- .1 -->
      <g transform="translate(180.080527 307.556082) scale(0.11 -0.11)">
       <use xlink:href="#DejaVuSans-11"/>
       <use xlink:href="#DejaVuSans-14" transform="translate(31.78125 0)"/>
      </g>
     </g>
    </g>
    <g id="xtick_4">
     <g id="line2d_4">
      <g>
       <use xlink:href="#m99d5fc5e68" x="250.996406" y="292.198661" style="stroke: #000000; stroke-width: 0.8"/>
      </g>
     </g>
     <g id="text_4">
      <!-- 1 -->
      <g transform="translate(247.497031 307.556082) scale(0.11 -0.11)">
       <use xlink:href="#DejaVuSans-14"/>
      </g>
     </g>
    </g>
    <g id="xtick_5">
     <g id="line2d_5">
      <g>
       <use xlink:href="#m99d5fc5e68" x="316.664942" y="292.198661" style="stroke: #000000; stroke-width: 0.8"/>
      </g>
     </g>
     <g id="text_5">
      <!-- 10 -->
      <g transform="translate(309.666192 307.556082) scale(0.11 -0.11)">
       <use xlink:href="#DejaVuSans-14"/>
       <use xlink:href="#DejaVuSans-13" transform="translate(63.625 0)"/>
      </g>
     </g>
    </g>
    <g id="xtick_6">
     <g id="line2d_6">
      <g>
       <use xlink:href="#m99d5fc5e68" x="382.333477" y="292.198661" style="stroke: #000000; stroke-width: 0.8"/>
      </g>
     </g>
     <g id="text_6">
      <!-- 100 -->
      <g transform="translate(371.835352 307.556082) scale(0.11 -0.11)">
       <use xlink:href="#DejaVuSans-14"/>
       <use xlink:href="#DejaVuSans-13" transform="translate(63.625 0)"/>
       <use xlink:href="#DejaVuSans-13" transform="translate(127.25 0)"/>
      </g>
     </g>
    </g>
    <g id="xtick_7">
     <g id="line2d_7">
      <g>
       <use xlink:href="#m99d5fc5e68" x="448.002012" y="292.198661" style="stroke: #000000; stroke-width: 0.8"/>
      </g>
     </g>
     <g id="text_7">
      <!-- 1000 -->
      <g transform="translate(434.004512 307.556082) scale(0.11 -0.11)">
       <use xlink:href="#DejaVuSans-14"/>
       <use xlink:href="#DejaVuSans-13" transform="translate(63.625 0)"/>
       <use xlink:href="#DejaVuSans-13" transform="translate(127.25 0)"/>
       <use xlink:href="#DejaVuSans-13" transform="translate(190.875 0)"/>
      </g>
     </g>
    </g>
    <g id="text_8">
     <!-- Normalized penalty coefficient alpha -->
     <g transform="translate(152.109602 322.556942) scale(0.11 -0.11)">
      <defs>
       <path id="DejaVuSans-31" d="M 628 4666 
L 1478 4666 
L 3547 763 
L 3547 4666 
L 4159 4666 
L 4159 0 
L 3309 0 
L 1241 3903 
L 1241 0 
L 628 0 
L 628 4666 
z
" transform="scale(0.015625)"/>
       <path id="DejaVuSans-52" d="M 1959 3097 
Q 1497 3097 1228 2736 
Q 959 2375 959 1747 
Q 959 1119 1226 758 
Q 1494 397 1959 397 
Q 2419 397 2687 759 
Q 2956 1122 2956 1747 
Q 2956 2369 2687 2733 
Q 2419 3097 1959 3097 
z
M 1959 3584 
Q 2709 3584 3137 3096 
Q 3566 2609 3566 1747 
Q 3566 888 3137 398 
Q 2709 -91 1959 -91 
Q 1206 -91 779 398 
Q 353 888 353 1747 
Q 353 2609 779 3096 
Q 1206 3584 1959 3584 
z
" transform="scale(0.015625)"/>
       <path id="DejaVuSans-55" d="M 2631 2963 
Q 2534 3019 2420 3045 
Q 2306 3072 2169 3072 
Q 1681 3072 1420 2755 
Q 1159 2438 1159 1844 
L 1159 0 
L 581 0 
L 581 3500 
L 1159 3500 
L 1159 2956 
Q 1341 3275 1631 3429 
Q 1922 3584 2338 3584 
Q 2397 3584 2469 3576 
Q 2541 3569 2628 3553 
L 2631 2963 
z
" transform="scale(0.015625)"/>
       <path id="DejaVuSans-50" d="M 3328 2828 
Q 3544 3216 3844 3400 
Q 4144 3584 4550 3584 
Q 5097 3584 5394 3201 
Q 5691 2819 5691 2113 
L 5691 0 
L 5113 0 
L 5113 2094 
Q 5113 2597 4934 2840 
Q 4756 3084 4391 3084 
Q 3944 3084 3684 2787 
Q 3425 2491 3425 1978 
L 3425 0 
L 2847 0 
L 2847 2094 
Q 2847 2600 2669 2842 
Q 2491 3084 2119 3084 
Q 1678 3084 1418 2786 
Q 1159 2488 1159 1978 
L 1159 0 
L 581 0 
L 581 3500 
L 1159 3500 
L 1159 2956 
Q 1356 3278 1631 3431 
Q 1906 3584 2284 3584 
Q 2666 3584 2933 3390 
Q 3200 3197 3328 2828 
z
" transform="scale(0.015625)"/>
       <path id="DejaVuSans-44" d="M 2194 1759 
Q 1497 1759 1228 1600 
Q 959 1441 959 1056 
Q 959 750 1161 570 
Q 1363 391 1709 391 
Q 2188 391 2477 730 
Q 2766 1069 2766 1631 
L 2766 1759 
L 2194 1759 
z
M 3341 1997 
L 3341 0 
L 2766 0 
L 2766 531 
Q 2569 213 2275 61 
Q 1981 -91 1556 -91 
Q 1019 -91 701 211 
Q 384 513 384 1019 
Q 384 1609 779 1909 
Q 1175 2209 1959 2209 
L 2766 2209 
L 2766 2266 
Q 2766 2663 2505 2880 
Q 2244 3097 1772 3097 
Q 1472 3097 1187 3025 
Q 903 2953 641 2809 
L 641 3341 
Q 956 3463 1253 3523 
Q 1550 3584 1831 3584 
Q 2591 3584 2966 3190 
Q 3341 2797 3341 1997 
z
" transform="scale(0.015625)"/>
       <path id="DejaVuSans-4f" d="M 603 4863 
L 1178 4863 
L 1178 0 
L 603 0 
L 603 4863 
z
" transform="scale(0.015625)"/>
       <path id="DejaVuSans-4c" d="M 603 3500 
L 1178 3500 
L 1178 0 
L 603 0 
L 603 3500 
z
M 603 4863 
L 1178 4863 
L 1178 4134 
L 603 4134 
L 603 4863 
z
" transform="scale(0.015625)"/>
       <path id="DejaVuSans-5d" d="M 353 3500 
L 3084 3500 
L 3084 2975 
L 922 459 
L 3084 459 
L 3084 0 
L 275 0 
L 275 525 
L 2438 3041 
L 353 3041 
L 353 3500 
z
" transform="scale(0.015625)"/>
       <path id="DejaVuSans-48" d="M 3597 1894 
L 3597 1613 
L 953 1613 
Q 991 1019 1311 708 
Q 1631 397 2203 397 
Q 2534 397 2845 478 
Q 3156 559 3463 722 
L 3463 178 
Q 3153 47 2828 -22 
Q 2503 -91 2169 -91 
Q 1331 -91 842 396 
Q 353 884 353 1716 
Q 353 2575 817 3079 
Q 1281 3584 2069 3584 
Q 2775 3584 3186 3129 
Q 3597 2675 3597 1894 
z
M 3022 2063 
Q 3016 2534 2758 2815 
Q 2500 3097 2075 3097 
Q 1594 3097 1305 2825 
Q 1016 2553 972 2059 
L 3022 2063 
z
" transform="scale(0.015625)"/>
       <path id="DejaVuSans-47" d="M 2906 2969 
L 2906 4863 
L 3481 4863 
L 3481 0 
L 2906 0 
L 2906 525 
Q 2725 213 2448 61 
Q 2172 -91 1784 -91 
Q 1150 -91 751 415 
Q 353 922 353 1747 
Q 353 2572 751 3078 
Q 1150 3584 1784 3584 
Q 2172 3584 2448 3432 
Q 2725 3281 2906 2969 
z
M 947 1747 
Q 947 1113 1208 752 
Q 1469 391 1925 391 
Q 2381 391 2643 752 
Q 2906 1113 2906 1747 
Q 2906 2381 2643 2742 
Q 2381 3103 1925 3103 
Q 1469 3103 1208 2742 
Q 947 2381 947 1747 
z
" transform="scale(0.015625)"/>
       <path id="DejaVuSans-3" transform="scale(0.015625)"/>
       <path id="DejaVuSans-53" d="M 1159 525 
L 1159 -1331 
L 581 -1331 
L 581 3500 
L 1159 3500 
L 1159 2969 
Q 1341 3281 1617 3432 
Q 1894 3584 2278 3584 
Q 2916 3584 3314 3078 
Q 3713 2572 3713 1747 
Q 3713 922 3314 415 
Q 2916 -91 2278 -91 
Q 1894 -91 1617 61 
Q 1341 213 1159 525 
z
M 3116 1747 
Q 3116 2381 2855 2742 
Q 2594 3103 2138 3103 
Q 1681 3103 1420 2742 
Q 1159 2381 1159 1747 
Q 1159 1113 1420 752 
Q 1681 391 2138 391 
Q 2594 391 2855 752 
Q 3116 1113 3116 1747 
z
" transform="scale(0.015625)"/>
       <path id="DejaVuSans-51" d="M 3513 2113 
L 3513 0 
L 2938 0 
L 2938 2094 
Q 2938 2591 2744 2837 
Q 2550 3084 2163 3084 
Q 1697 3084 1428 2787 
Q 1159 2491 1159 1978 
L 1159 0 
L 581 0 
L 581 3500 
L 1159 3500 
L 1159 2956 
Q 1366 3272 1645 3428 
Q 1925 3584 2291 3584 
Q 2894 3584 3203 3211 
Q 3513 2838 3513 2113 
z
" transform="scale(0.015625)"/>
       <path id="DejaVuSans-57" d="M 1172 4494 
L 1172 3500 
L 2356 3500 
L 2356 3053 
L 1172 3053 
L 1172 1153 
Q 1172 725 1289 603 
Q 1406 481 1766 481 
L 2356 481 
L 2356 0 
L 1766 0 
Q 1100 0 847 248 
Q 594 497 594 1153 
L 594 3053 
L 172 3053 
L 172 3500 
L 594 3500 
L 594 4494 
L 1172 4494 
z
" transform="scale(0.015625)"/>
       <path id="DejaVuSans-5c" d="M 2059 -325 
Q 1816 -950 1584 -1140 
Q 1353 -1331 966 -1331 
L 506 -1331 
L 506 -850 
L 844 -850 
Q 1081 -850 1212 -737 
Q 1344 -625 1503 -206 
L 1606 56 
L 191 3500 
L 800 3500 
L 1894 763 
L 2988 3500 
L 3597 3500 
L 2059 -325 
z
" transform="scale(0.015625)"/>
       <path id="DejaVuSans-46" d="M 3122 3366 
L 3122 2828 
Q 2878 2963 2633 3030 
Q 2388 3097 2138 3097 
Q 1578 3097 1268 2742 
Q 959 2388 959 1747 
Q 959 1106 1268 751 
Q 1578 397 2138 397 
Q 2388 397 2633 464 
Q 2878 531 3122 666 
L 3122 134 
Q 2881 22 2623 -34 
Q 2366 -91 2075 -91 
Q 1284 -91 818 406 
Q 353 903 353 1747 
Q 353 2603 823 3093 
Q 1294 3584 2113 3584 
Q 2378 3584 2631 3529 
Q 2884 3475 3122 3366 
z
" transform="scale(0.015625)"/>
       <path id="DejaVuSans-13b1" d="M 2375 4863 
L 2375 4384 
L 1825 4384 
Q 1516 4384 1394 4259 
Q 1275 4134 1275 3809 
L 1275 3500 
L 2853 3500 
L 2853 3744 
Q 2853 4328 3125 4594 
Q 3213 4681 3334 4741 
Q 3578 4863 3988 4863 
L 4531 4863 
L 4531 4384 
L 3981 4384 
Q 3672 4384 3551 4259 
Q 3431 4134 3431 3809 
L 3431 3500 
L 5588 3500 
L 5588 0 
L 5009 0 
L 5009 3053 
L 3431 3053 
L 3431 0 
L 2853 0 
L 2853 3053 
L 1275 3053 
L 1275 0 
L 697 0 
L 697 3053 
L 147 3053 
L 147 3500 
L 697 3500 
L 697 3744 
Q 697 4328 969 4595 
Q 1241 4863 1831 4863 
L 2375 4863 
z
M 5009 4856 
L 5588 4856 
L 5588 4128 
L 5009 4128 
L 5009 4856 
z
" transform="scale(0.015625)"/>
       <path id="DejaVuSans-4b" d="M 3513 2113 
L 3513 0 
L 2938 0 
L 2938 2094 
Q 2938 2591 2744 2837 
Q 2550 3084 2163 3084 
Q 1697 3084 1428 2787 
Q 1159 2491 1159 1978 
L 1159 0 
L 581 0 
L 581 4863 
L 1159 4863 
L 1159 2956 
Q 1366 3272 1645 3428 
Q 1925 3584 2291 3584 
Q 2894 3584 3203 3211 
Q 3513 2838 3513 2113 
z
" transform="scale(0.015625)"/>
      </defs>
      <use xlink:href="#DejaVuSans-31"/>
      <use xlink:href="#DejaVuSans-52" transform="translate(74.8125 0)"/>
      <use xlink:href="#DejaVuSans-55" transform="translate(136 0)"/>
      <use xlink:href="#DejaVuSans-50" transform="translate(175.359375 0)"/>
      <use xlink:href="#DejaVuSans-44" transform="translate(272.765625 0)"/>
      <use xlink:href="#DejaVuSans-4f" transform="translate(334.046875 0)"/>
      <use xlink:href="#DejaVuSans-4c" transform="translate(361.828125 0)"/>
      <use xlink:href="#DejaVuSans-5d" transform="translate(389.609375 0)"/>
      <use xlink:href="#DejaVuSans-48" transform="translate(442.09375 0)"/>
      <use xlink:href="#DejaVuSans-47" transform="translate(503.625 0)"/>
      <use xlink:href="#DejaVuSans-3" transform="translate(567.109375 0)"/>
      <use xlink:href="#DejaVuSans-53" transform="translate(598.890625 0)"/>
      <use xlink:href="#DejaVuSans-48" transform="translate(662.375 0)"/>
      <use xlink:href="#DejaVuSans-51" transform="translate(723.90625 0)"/>
      <use xlink:href="#DejaVuSans-44" transform="translate(787.28125 0)"/>
      <use xlink:href="#DejaVuSans-4f" transform="translate(848.5625 0)"/>
      <use xlink:href="#DejaVuSans-57" transform="translate(876.34375 0)"/>
      <use xlink:href="#DejaVuSans-5c" transform="translate(915.546875 0)"/>
      <use xlink:href="#DejaVuSans-3" transform="translate(974.734375 0)"/>
      <use xlink:href="#DejaVuSans-46" transform="translate(1006.515625 0)"/>
      <use xlink:href="#DejaVuSans-52" transform="translate(1061.5 0)"/>
      <use xlink:href="#DejaVuSans-48" transform="translate(1122.6875 0)"/>
      <use xlink:href="#DejaVuSans-13b1" transform="translate(1184.21875 0)"/>
      <use xlink:href="#DejaVuSans-46" transform="translate(1280.90625 0)"/>
      <use xlink:href="#DejaVuSans-4c" transform="translate(1335.890625 0)"/>
      <use xlink:href="#DejaVuSans-48" transform="translate(1363.671875 0)"/>
      <use xlink:href="#DejaVuSans-51" transform="translate(1425.203125 0)"/>
      <use xlink:href="#DejaVuSans-57" transform="translate(1488.578125 0)"/>
      <use xlink:href="#DejaVuSans-3" transform="translate(1527.78125 0)"/>
      <use xlink:href="#DejaVuSans-44" transform="translate(1559.5625 0)"/>
      <use xlink:href="#DejaVuSans-4f" transform="translate(1620.84375 0)"/>
      <use xlink:href="#DejaVuSans-53" transform="translate(1648.625 0)"/>
      <use xlink:href="#DejaVuSans-4b" transform="translate(1712.109375 0)"/>
      <use xlink:href="#DejaVuSans-44" transform="translate(1775.484375 0)"/>
     </g>
    </g>
   </g>
   <g id="matplotlib.axis_2">
    <g id="ytick_1">
     <g id="line2d_8">
      <path d="M 46.694297 259.827136 
L 459.569126 259.827136 
" clip-path="url(#pc884472197)" style="fill: none; stroke: #b0b0b0; stroke-opacity: 0.25; stroke-width: 0.8; stroke-linecap: square"/>
     </g>
     <g id="line2d_9">
      <defs>
       <path id="m07008d200e" d="M 0 0 
L -3.5 0 
" style="stroke: #000000; stroke-width: 0.8"/>
      </defs>
      <g>
       <use xlink:href="#m07008d200e" x="46.694297" y="259.827136" style="stroke: #000000; stroke-width: 0.8"/>
      </g>
     </g>
     <g id="text_9">
      <!-- 2.4 -->
      <g transform="translate(22.200859 264.005847) scale(0.11 -0.11)">
       <defs>
        <path id="DejaVuSans-15" d="M 1228 531 
L 3431 531 
L 3431 0 
L 469 0 
L 469 531 
Q 828 903 1448 1529 
Q 2069 2156 2228 2338 
Q 2531 2678 2651 2914 
Q 2772 3150 2772 3378 
Q 2772 3750 2511 3984 
Q 2250 4219 1831 4219 
Q 1534 4219 1204 4116 
Q 875 4013 500 3803 
L 500 4441 
Q 881 4594 1212 4672 
Q 1544 4750 1819 4750 
Q 2544 4750 2975 4387 
Q 3406 4025 3406 3419 
Q 3406 3131 3298 2873 
Q 3191 2616 2906 2266 
Q 2828 2175 2409 1742 
Q 1991 1309 1228 531 
z
" transform="scale(0.015625)"/>
        <path id="DejaVuSans-17" d="M 2419 4116 
L 825 1625 
L 2419 1625 
L 2419 4116 
z
M 2253 4666 
L 3047 4666 
L 3047 1625 
L 3713 1625 
L 3713 1100 
L 3047 1100 
L 3047 0 
L 2419 0 
L 2419 1100 
L 313 1100 
L 313 1709 
L 2253 4666 
z
" transform="scale(0.015625)"/>
       </defs>
       <use xlink:href="#DejaVuSans-15"/>
       <use xlink:href="#DejaVuSans-11" transform="translate(63.625 0)"/>
       <use xlink:href="#DejaVuSans-17" transform="translate(95.40625 0)"/>
      </g>
     </g>
    </g>
    <g id="ytick_2">
     <g id="line2d_10">
      <path d="M 46.694297 218.601997 
L 459.569126 218.601997 
" clip-path="url(#pc884472197)" style="fill: none; stroke: #b0b0b0; stroke-opacity: 0.25; stroke-width: 0.8; stroke-linecap: square"/>
     </g>
     <g id="line2d_11">
      <g>
       <use xlink:href="#m07008d200e" x="46.694297" y="218.601997" style="stroke: #000000; stroke-width: 0.8"/>
      </g>
     </g>
     <g id="text_10">
      <!-- 2.6 -->
      <g transform="translate(22.200859 222.780708) scale(0.11 -0.11)">
       <defs>
        <path id="DejaVuSans-19" d="M 2113 2584 
Q 1688 2584 1439 2293 
Q 1191 2003 1191 1497 
Q 1191 994 1439 701 
Q 1688 409 2113 409 
Q 2538 409 2786 701 
Q 3034 994 3034 1497 
Q 3034 2003 2786 2293 
Q 2538 2584 2113 2584 
z
M 3366 4563 
L 3366 3988 
Q 3128 4100 2886 4159 
Q 2644 4219 2406 4219 
Q 1781 4219 1451 3797 
Q 1122 3375 1075 2522 
Q 1259 2794 1537 2939 
Q 1816 3084 2150 3084 
Q 2853 3084 3261 2657 
Q 3669 2231 3669 1497 
Q 3669 778 3244 343 
Q 2819 -91 2113 -91 
Q 1303 -91 875 529 
Q 447 1150 447 2328 
Q 447 3434 972 4092 
Q 1497 4750 2381 4750 
Q 2619 4750 2861 4703 
Q 3103 4656 3366 4563 
z
" transform="scale(0.015625)"/>
       </defs>
       <use xlink:href="#DejaVuSans-15"/>
       <use xlink:href="#DejaVuSans-11" transform="translate(63.625 0)"/>
       <use xlink:href="#DejaVuSans-19" transform="translate(95.40625 0)"/>
      </g>
     </g>
    </g>
    <g id="ytick_3">
     <g id="line2d_12">
      <path d="M 46.694297 177.376858 
L 459.569126 177.376858 
" clip-path="url(#pc884472197)" style="fill: none; stroke: #b0b0b0; stroke-opacity: 0.25; stroke-width: 0.8; stroke-linecap: square"/>
     </g>
     <g id="line2d_13">
      <g>
       <use xlink:href="#m07008d200e" x="46.694297" y="177.376858" style="stroke: #000000; stroke-width: 0.8"/>
      </g>
     </g>
     <g id="text_11">
      <!-- 2.8 -->
      <g transform="translate(22.200859 181.555569) scale(0.11 -0.11)">
       <defs>
        <path id="DejaVuSans-1b" d="M 2034 2216 
Q 1584 2216 1326 1975 
Q 1069 1734 1069 1313 
Q 1069 891 1326 650 
Q 1584 409 2034 409 
Q 2484 409 2743 651 
Q 3003 894 3003 1313 
Q 3003 1734 2745 1975 
Q 2488 2216 2034 2216 
z
M 1403 2484 
Q 997 2584 770 2862 
Q 544 3141 544 3541 
Q 544 4100 942 4425 
Q 1341 4750 2034 4750 
Q 2731 4750 3128 4425 
Q 3525 4100 3525 3541 
Q 3525 3141 3298 2862 
Q 3072 2584 2669 2484 
Q 3125 2378 3379 2068 
Q 3634 1759 3634 1313 
Q 3634 634 3220 271 
Q 2806 -91 2034 -91 
Q 1263 -91 848 271 
Q 434 634 434 1313 
Q 434 1759 690 2068 
Q 947 2378 1403 2484 
z
M 1172 3481 
Q 1172 3119 1398 2916 
Q 1625 2713 2034 2713 
Q 2441 2713 2670 2916 
Q 2900 3119 2900 3481 
Q 2900 3844 2670 4047 
Q 2441 4250 2034 4250 
Q 1625 4250 1398 4047 
Q 1172 3844 1172 3481 
z
" transform="scale(0.015625)"/>
       </defs>
       <use xlink:href="#DejaVuSans-15"/>
       <use xlink:href="#DejaVuSans-11" transform="translate(63.625 0)"/>
       <use xlink:href="#DejaVuSans-1b" transform="translate(95.40625 0)"/>
      </g>
     </g>
    </g>
    <g id="ytick_4">
     <g id="line2d_14">
      <path d="M 46.694297 136.151719 
L 459.569126 136.151719 
" clip-path="url(#pc884472197)" style="fill: none; stroke: #b0b0b0; stroke-opacity: 0.25; stroke-width: 0.8; stroke-linecap: square"/>
     </g>
     <g id="line2d_15">
      <g>
       <use xlink:href="#m07008d200e" x="46.694297" y="136.151719" style="stroke: #000000; stroke-width: 0.8"/>
      </g>
     </g>
     <g id="text_12">
      <!-- 3.0 -->
      <g transform="translate(22.200859 140.33043) scale(0.11 -0.11)">
       <defs>
        <path id="DejaVuSans-16" d="M 2597 2516 
Q 3050 2419 3304 2112 
Q 3559 1806 3559 1356 
Q 3559 666 3084 287 
Q 2609 -91 1734 -91 
Q 1441 -91 1130 -33 
Q 819 25 488 141 
L 488 750 
Q 750 597 1062 519 
Q 1375 441 1716 441 
Q 2309 441 2620 675 
Q 2931 909 2931 1356 
Q 2931 1769 2642 2001 
Q 2353 2234 1838 2234 
L 1294 2234 
L 1294 2753 
L 1863 2753 
Q 2328 2753 2575 2939 
Q 2822 3125 2822 3475 
Q 2822 3834 2567 4026 
Q 2313 4219 1838 4219 
Q 1578 4219 1281 4162 
Q 984 4106 628 3988 
L 628 4550 
Q 988 4650 1302 4700 
Q 1616 4750 1894 4750 
Q 2613 4750 3031 4423 
Q 3450 4097 3450 3541 
Q 3450 3153 3228 2886 
Q 3006 2619 2597 2516 
z
" transform="scale(0.015625)"/>
       </defs>
       <use xlink:href="#DejaVuSans-16"/>
       <use xlink:href="#DejaVuSans-11" transform="translate(63.625 0)"/>
       <use xlink:href="#DejaVuSans-13" transform="translate(95.40625 0)"/>
      </g>
     </g>
    </g>
    <g id="ytick_5">
     <g id="line2d_16">
      <path d="M 46.694297 94.92658 
L 459.569126 94.92658 
" clip-path="url(#pc884472197)" style="fill: none; stroke: #b0b0b0; stroke-opacity: 0.25; stroke-width: 0.8; stroke-linecap: square"/>
     </g>
     <g id="line2d_17">
      <g>
       <use xlink:href="#m07008d200e" x="46.694297" y="94.92658" style="stroke: #000000; stroke-width: 0.8"/>
      </g>
     </g>
     <g id="text_13">
      <!-- 3.2 -->
      <g transform="translate(22.200859 99.105291) scale(0.11 -0.11)">
       <use xlink:href="#DejaVuSans-16"/>
       <use xlink:href="#DejaVuSans-11" transform="translate(63.625 0)"/>
       <use xlink:href="#DejaVuSans-15" transform="translate(95.40625 0)"/>
      </g>
     </g>
    </g>
    <g id="ytick_6">
     <g id="line2d_18">
      <path d="M 46.694297 53.701441 
L 459.569126 53.701441 
" clip-path="url(#pc884472197)" style="fill: none; stroke: #b0b0b0; stroke-opacity: 0.25; stroke-width: 0.8; stroke-linecap: square"/>
     </g>
     <g id="line2d_19">
      <g>
       <use xlink:href="#m07008d200e" x="46.694297" y="53.701441" style="stroke: #000000; stroke-width: 0.8"/>
      </g>
     </g>
     <g id="text_14">
      <!-- 3.4 -->
      <g transform="translate(22.200859 57.880152) scale(0.11 -0.11)">
       <use xlink:href="#DejaVuSans-16"/>
       <use xlink:href="#DejaVuSans-11" transform="translate(63.625 0)"/>
       <use xlink:href="#DejaVuSans-17" transform="translate(95.40625 0)"/>
      </g>
     </g>
    </g>
    <g id="ytick_7">
     <g id="line2d_20">
      <path d="M 46.694297 12.476302 
L 459.569126 12.476302 
" clip-path="url(#pc884472197)" style="fill: none; stroke: #b0b0b0; stroke-opacity: 0.25; stroke-width: 0.8; stroke-linecap: square"/>
     </g>
     <g id="line2d_21">
      <g>
       <use xlink:href="#m07008d200e" x="46.694297" y="12.476302" style="stroke: #000000; stroke-width: 0.8"/>
      </g>
     </g>
     <g id="text_15">
      <!-- 3.6 -->
      <g transform="translate(22.200859 16.655013) scale(0.11 -0.11)">
       <use xlink:href="#DejaVuSans-16"/>
       <use xlink:href="#DejaVuSans-11" transform="translate(63.625 0)"/>
       <use xlink:href="#DejaVuSans-19" transform="translate(95.40625 0)"/>
      </g>
     </g>
    </g>
    <g id="text_16">
     <!-- Selected candidate true objective (eV) -->
     <g transform="translate(15.558281 255.680033) rotate(-90) scale(0.11 -0.11)">
      <defs>
       <path id="DejaVuSans-36" d="M 3425 4513 
L 3425 3897 
Q 3066 4069 2747 4153 
Q 2428 4238 2131 4238 
Q 1616 4238 1336 4038 
Q 1056 3838 1056 3469 
Q 1056 3159 1242 3001 
Q 1428 2844 1947 2747 
L 2328 2669 
Q 3034 2534 3370 2195 
Q 3706 1856 3706 1288 
Q 3706 609 3251 259 
Q 2797 -91 1919 -91 
Q 1588 -91 1214 -16 
Q 841 59 441 206 
L 441 856 
Q 825 641 1194 531 
Q 1563 422 1919 422 
Q 2459 422 2753 634 
Q 3047 847 3047 1241 
Q 3047 1584 2836 1778 
Q 2625 1972 2144 2069 
L 1759 2144 
Q 1053 2284 737 2584 
Q 422 2884 422 3419 
Q 422 4038 858 4394 
Q 1294 4750 2059 4750 
Q 2388 4750 2728 4690 
Q 3069 4631 3425 4513 
z
" transform="scale(0.015625)"/>
       <path id="DejaVuSans-58" d="M 544 1381 
L 544 3500 
L 1119 3500 
L 1119 1403 
Q 1119 906 1312 657 
Q 1506 409 1894 409 
Q 2359 409 2629 706 
Q 2900 1003 2900 1516 
L 2900 3500 
L 3475 3500 
L 3475 0 
L 2900 0 
L 2900 538 
Q 2691 219 2414 64 
Q 2138 -91 1772 -91 
Q 1169 -91 856 284 
Q 544 659 544 1381 
z
M 1991 3584 
L 1991 3584 
z
" transform="scale(0.015625)"/>
       <path id="DejaVuSans-45" d="M 3116 1747 
Q 3116 2381 2855 2742 
Q 2594 3103 2138 3103 
Q 1681 3103 1420 2742 
Q 1159 2381 1159 1747 
Q 1159 1113 1420 752 
Q 1681 391 2138 391 
Q 2594 391 2855 752 
Q 3116 1113 3116 1747 
z
M 1159 2969 
Q 1341 3281 1617 3432 
Q 1894 3584 2278 3584 
Q 2916 3584 3314 3078 
Q 3713 2572 3713 1747 
Q 3713 922 3314 415 
Q 2916 -91 2278 -91 
Q 1894 -91 1617 61 
Q 1341 213 1159 525 
L 1159 0 
L 581 0 
L 581 4863 
L 1159 4863 
L 1159 2969 
z
" transform="scale(0.015625)"/>
       <path id="DejaVuSans-4d" d="M 603 3500 
L 1178 3500 
L 1178 -63 
Q 1178 -731 923 -1031 
Q 669 -1331 103 -1331 
L -116 -1331 
L -116 -844 
L 38 -844 
Q 366 -844 484 -692 
Q 603 -541 603 -63 
L 603 3500 
z
M 603 4863 
L 1178 4863 
L 1178 4134 
L 603 4134 
L 603 4863 
z
" transform="scale(0.015625)"/>
       <path id="DejaVuSans-59" d="M 191 3500 
L 800 3500 
L 1894 563 
L 2988 3500 
L 3597 3500 
L 2284 0 
L 1503 0 
L 191 3500 
z
" transform="scale(0.015625)"/>
       <path id="DejaVuSans-b" d="M 1984 4856 
Q 1566 4138 1362 3434 
Q 1159 2731 1159 2009 
Q 1159 1288 1364 580 
Q 1569 -128 1984 -844 
L 1484 -844 
Q 1016 -109 783 600 
Q 550 1309 550 2009 
Q 550 2706 781 3412 
Q 1013 4119 1484 4856 
L 1984 4856 
z
" transform="scale(0.015625)"/>
       <path id="DejaVuSans-39" d="M 1831 0 
L 50 4666 
L 709 4666 
L 2188 738 
L 3669 4666 
L 4325 4666 
L 2547 0 
L 1831 0 
z
" transform="scale(0.015625)"/>
       <path id="DejaVuSans-c" d="M 513 4856 
L 1013 4856 
Q 1481 4119 1714 3412 
Q 1947 2706 1947 2009 
Q 1947 1309 1714 600 
Q 1481 -109 1013 -844 
L 513 -844 
Q 928 -128 1133 580 
Q 1338 1288 1338 2009 
Q 1338 2731 1133 3434 
Q 928 4138 513 4856 
z
" transform="scale(0.015625)"/>
      </defs>
      <use xlink:href="#DejaVuSans-36"/>
      <use xlink:href="#DejaVuSans-48" transform="translate(63.484375 0)"/>
      <use xlink:href="#DejaVuSans-4f" transform="translate(125.015625 0)"/>
      <use xlink:href="#DejaVuSans-48" transform="translate(152.796875 0)"/>
      <use xlink:href="#DejaVuSans-46" transform="translate(214.328125 0)"/>
      <use xlink:href="#DejaVuSans-57" transform="translate(269.3125 0)"/>
      <use xlink:href="#DejaVuSans-48" transform="translate(308.515625 0)"/>
      <use xlink:href="#DejaVuSans-47" transform="translate(370.046875 0)"/>
      <use xlink:href="#DejaVuSans-3" transform="translate(433.53125 0)"/>
      <use xlink:href="#DejaVuSans-46" transform="translate(465.3125 0)"/>
      <use xlink:href="#DejaVuSans-44" transform="translate(520.296875 0)"/>
      <use xlink:href="#DejaVuSans-51" transform="translate(581.578125 0)"/>
      <use xlink:href="#DejaVuSans-47" transform="translate(644.953125 0)"/>
      <use xlink:href="#DejaVuSans-4c" transform="translate(708.4375 0)"/>
      <use xlink:href="#DejaVuSans-47" transform="translate(736.21875 0)"/>
      <use xlink:href="#DejaVuSans-44" transform="translate(799.703125 0)"/>
      <use xlink:href="#DejaVuSans-57" transform="translate(860.984375 0)"/>
      <use xlink:href="#DejaVuSans-48" transform="translate(900.1875 0)"/>
      <use xlink:href="#DejaVuSans-3" transform="translate(961.71875 0)"/>
      <use xlink:href="#DejaVuSans-57" transform="translate(993.5 0)"/>
      <use xlink:href="#DejaVuSans-55" transform="translate(1032.703125 0)"/>
      <use xlink:href="#DejaVuSans-58" transform="translate(1073.8125 0)"/>
      <use xlink:href="#DejaVuSans-48" transform="translate(1137.1875 0)"/>
      <use xlink:href="#DejaVuSans-3" transform="translate(1198.71875 0)"/>
      <use xlink:href="#DejaVuSans-52" transform="translate(1230.5 0)"/>
      <use xlink:href="#DejaVuSans-45" transform="translate(1291.6875 0)"/>
      <use xlink:href="#DejaVuSans-4d" transform="translate(1355.171875 0)"/>
      <use xlink:href="#DejaVuSans-48" transform="translate(1382.953125 0)"/>
      <use xlink:href="#DejaVuSans-46" transform="translate(1444.484375 0)"/>
      <use xlink:href="#DejaVuSans-57" transform="translate(1499.46875 0)"/>
      <use xlink:href="#DejaVuSans-4c" transform="translate(1538.671875 0)"/>
      <use xlink:href="#DejaVuSans-59" transform="translate(1566.453125 0)"/>
      <use xlink:href="#DejaVuSans-48" transform="translate(1625.640625 0)"/>
      <use xlink:href="#DejaVuSans-3" transform="translate(1687.171875 0)"/>
      <use xlink:href="#DejaVuSans-b" transform="translate(1718.953125 0)"/>
      <use xlink:href="#DejaVuSans-48" transform="translate(1757.96875 0)"/>
      <use xlink:href="#DejaVuSans-39" transform="translate(1819.5 0)"/>
      <use xlink:href="#DejaVuSans-c" transform="translate(1887.90625 0)"/>
     </g>
    </g>
   </g>
   <g id="line2d_22">
    <path d="M 216.659725 168.647435 
L 250.996406 125.266221 
L 282.32826 151.986295 
L 316.664942 158.656522 
L 347.996796 158.009288 
L 382.333477 132.058063 
L 413.665331 177.434573 
L 448.002012 189.36719 
" clip-path="url(#pc884472197)" style="fill: none; stroke: #777777; stroke-width: 1.5; stroke-linecap: square"/>
    <defs>
     <path id="m2d164fd870" d="M -0 2 
L 2 -2 
L -2 -2 
z
" style="stroke: #777777; stroke-linejoin: miter"/>
    </defs>
    <g clip-path="url(#pc884472197)">
     <use xlink:href="#m2d164fd870" x="216.659725" y="168.647435" style="fill: #777777; stroke: #777777; stroke-linejoin: miter"/>
     <use xlink:href="#m2d164fd870" x="250.996406" y="125.266221" style="fill: #777777; stroke: #777777; stroke-linejoin: miter"/>
     <use xlink:href="#m2d164fd870" x="282.32826" y="151.986295" style="fill: #777777; stroke: #777777; stroke-linejoin: miter"/>
     <use xlink:href="#m2d164fd870" x="316.664942" y="158.656522" style="fill: #777777; stroke: #777777; stroke-linejoin: miter"/>
     <use xlink:href="#m2d164fd870" x="347.996796" y="158.009288" style="fill: #777777; stroke: #777777; stroke-linejoin: miter"/>
     <use xlink:href="#m2d164fd870" x="382.333477" y="132.058063" style="fill: #777777; stroke: #777777; stroke-linejoin: miter"/>
     <use xlink:href="#m2d164fd870" x="413.665331" y="177.434573" style="fill: #777777; stroke: #777777; stroke-linejoin: miter"/>
     <use xlink:href="#m2d164fd870" x="448.002012" y="189.36719" style="fill: #777777; stroke: #777777; stroke-linejoin: miter"/>
    </g>
   </g>
   <g id="line2d_23">
    <path d="M 216.659725 168.647435 
L 250.996406 55.515347 
L 282.32826 111.696967 
L 316.664942 168.057915 
L 347.996796 166.091476 
L 382.333477 178.046766 
L 413.665331 173.584145 
L 448.002012 166.796426 
" clip-path="url(#pc884472197)" style="fill: none; stroke: #9467bd; stroke-width: 1.5; stroke-linecap: square"/>
    <defs>
     <path id="m1b37b1cf44" d="M -2 2 
L 2 2 
L 2 -2 
L -2 -2 
z
" style="stroke: #9467bd; stroke-linejoin: miter"/>
    </defs>
    <g clip-path="url(#pc884472197)">
     <use xlink:href="#m1b37b1cf44" x="216.659725" y="168.647435" style="fill: #9467bd; stroke: #9467bd; stroke-linejoin: miter"/>
     <use xlink:href="#m1b37b1cf44" x="250.996406" y="55.515347" style="fill: #9467bd; stroke: #9467bd; stroke-linejoin: miter"/>
     <use xlink:href="#m1b37b1cf44" x="282.32826" y="111.696967" style="fill: #9467bd; stroke: #9467bd; stroke-linejoin: miter"/>
     <use xlink:href="#m1b37b1cf44" x="316.664942" y="168.057915" style="fill: #9467bd; stroke: #9467bd; stroke-linejoin: miter"/>
     <use xlink:href="#m1b37b1cf44" x="347.996796" y="166.091476" style="fill: #9467bd; stroke: #9467bd; stroke-linejoin: miter"/>
     <use xlink:href="#m1b37b1cf44" x="382.333477" y="178.046766" style="fill: #9467bd; stroke: #9467bd; stroke-linejoin: miter"/>
     <use xlink:href="#m1b37b1cf44" x="413.665331" y="173.584145" style="fill: #9467bd; stroke: #9467bd; stroke-linejoin: miter"/>
     <use xlink:href="#m1b37b1cf44" x="448.002012" y="166.796426" style="fill: #9467bd; stroke: #9467bd; stroke-linejoin: miter"/>
    </g>
   </g>
   <g id="line2d_24">
    <path d="M 216.659725 193.506193 
L 250.996406 55.515347 
L 282.32826 73.376139 
L 316.664942 114.083902 
L 347.996796 114.17872 
L 382.333477 140.562809 
L 413.665331 119.515314 
L 448.002012 125.033299 
" clip-path="url(#pc884472197)" style="fill: none; stroke: #1f77b4; stroke-width: 1.5; stroke-linecap: square"/>
    <defs>
     <path id="m4daf33bf69" d="M 0 2 
C 0.530406 2 1.03916 1.789267 1.414214 1.414214 
C 1.789267 1.03916 2 0.530406 2 0 
C 2 -0.530406 1.789267 -1.03916 1.414214 -1.414214 
C 1.03916 -1.789267 0.530406 -2 0 -2 
C -0.530406 -2 -1.03916 -1.789267 -1.414214 -1.414214 
C -1.789267 -1.03916 -2 -0.530406 -2 0 
C -2 0.530406 -1.789267 1.03916 -1.414214 1.414214 
C -1.03916 1.789267 -0.530406 2 0 2 
z
" style="stroke: #1f77b4"/>
    </defs>
    <g clip-path="url(#pc884472197)">
     <use xlink:href="#m4daf33bf69" x="216.659725" y="193.506193" style="fill: #1f77b4; stroke: #1f77b4"/>
     <use xlink:href="#m4daf33bf69" x="250.996406" y="55.515347" style="fill: #1f77b4; stroke: #1f77b4"/>
     <use xlink:href="#m4daf33bf69" x="282.32826" y="73.376139" style="fill: #1f77b4; stroke: #1f77b4"/>
     <use xlink:href="#m4daf33bf69" x="316.664942" y="114.083902" style="fill: #1f77b4; stroke: #1f77b4"/>
     <use xlink:href="#m4daf33bf69" x="347.996796" y="114.17872" style="fill: #1f77b4; stroke: #1f77b4"/>
     <use xlink:href="#m4daf33bf69" x="382.333477" y="140.562809" style="fill: #1f77b4; stroke: #1f77b4"/>
     <use xlink:href="#m4daf33bf69" x="413.665331" y="119.515314" style="fill: #1f77b4; stroke: #1f77b4"/>
     <use xlink:href="#m4daf33bf69" x="448.002012" y="125.033299" style="fill: #1f77b4; stroke: #1f77b4"/>
    </g>
   </g>
   <g id="line2d_25">
    <path d="M 216.659725 220.750857 
L 250.996406 55.515347 
L 282.32826 55.515347 
L 316.664942 82.653856 
L 347.996796 86.945393 
L 382.333477 109.792365 
L 413.665331 69.084602 
L 448.002012 69.084602 
" clip-path="url(#pc884472197)" style="fill: none; stroke: #ff7f0e; stroke-width: 1.5; stroke-linecap: square"/>
    <defs>
     <path id="m83b1d5cf48" d="M 0 -2 
L -2 2 
L 2 2 
z
" style="stroke: #ff7f0e; stroke-linejoin: miter"/>
    </defs>
    <g clip-path="url(#pc884472197)">
     <use xlink:href="#m83b1d5cf48" x="216.659725" y="220.750857" style="fill: #ff7f0e; stroke: #ff7f0e; stroke-linejoin: miter"/>
     <use xlink:href="#m83b1d5cf48" x="250.996406" y="55.515347" style="fill: #ff7f0e; stroke: #ff7f0e; stroke-linejoin: miter"/>
     <use xlink:href="#m83b1d5cf48" x="282.32826" y="55.515347" style="fill: #ff7f0e; stroke: #ff7f0e; stroke-linejoin: miter"/>
     <use xlink:href="#m83b1d5cf48" x="316.664942" y="82.653856" style="fill: #ff7f0e; stroke: #ff7f0e; stroke-linejoin: miter"/>
     <use xlink:href="#m83b1d5cf48" x="347.996796" y="86.945393" style="fill: #ff7f0e; stroke: #ff7f0e; stroke-linejoin: miter"/>
     <use xlink:href="#m83b1d5cf48" x="382.333477" y="109.792365" style="fill: #ff7f0e; stroke: #ff7f0e; stroke-linejoin: miter"/>
     <use xlink:href="#m83b1d5cf48" x="413.665331" y="69.084602" style="fill: #ff7f0e; stroke: #ff7f0e; stroke-linejoin: miter"/>
     <use xlink:href="#m83b1d5cf48" x="448.002012" y="69.084602" style="fill: #ff7f0e; stroke: #ff7f0e; stroke-linejoin: miter"/>
    </g>
   </g>
   <g id="line2d_26">
    <path d="M 216.659725 247.995521 
L 250.996406 55.515347 
L 282.32826 55.515347 
L 316.664942 55.515347 
L 347.996796 55.515347 
L 382.333477 55.515347 
L 413.665331 55.515347 
L 448.002012 55.515347 
" clip-path="url(#pc884472197)" style="fill: none; stroke: #2ca02c; stroke-width: 1.5; stroke-linecap: square"/>
    <defs>
     <path id="m2166344d33" d="M -0 2.828427 
L 2.828427 0 
L 0 -2.828427 
L -2.828427 -0 
z
" style="stroke: #2ca02c; stroke-linejoin: miter"/>
    </defs>
    <g clip-path="url(#pc884472197)">
     <use xlink:href="#m2166344d33" x="216.659725" y="247.995521" style="fill: #2ca02c; stroke: #2ca02c; stroke-linejoin: miter"/>
     <use xlink:href="#m2166344d33" x="250.996406" y="55.515347" style="fill: #2ca02c; stroke: #2ca02c; stroke-linejoin: miter"/>
     <use xlink:href="#m2166344d33" x="282.32826" y="55.515347" style="fill: #2ca02c; stroke: #2ca02c; stroke-linejoin: miter"/>
     <use xlink:href="#m2166344d33" x="316.664942" y="55.515347" style="fill: #2ca02c; stroke: #2ca02c; stroke-linejoin: miter"/>
     <use xlink:href="#m2166344d33" x="347.996796" y="55.515347" style="fill: #2ca02c; stroke: #2ca02c; stroke-linejoin: miter"/>
     <use xlink:href="#m2166344d33" x="382.333477" y="55.515347" style="fill: #2ca02c; stroke: #2ca02c; stroke-linejoin: miter"/>
     <use xlink:href="#m2166344d33" x="413.665331" y="55.515347" style="fill: #2ca02c; stroke: #2ca02c; stroke-linejoin: miter"/>
     <use xlink:href="#m2166344d33" x="448.002012" y="55.515347" style="fill: #2ca02c; stroke: #2ca02c; stroke-linejoin: miter"/>
    </g>
   </g>
   <g id="patch_3">
    <path d="M 46.694297 292.198661 
L 46.694297 7.2 
" style="fill: none; stroke: #000000; stroke-width: 0.8; stroke-linejoin: miter; stroke-linecap: square"/>
   </g>
   <g id="patch_4">
    <path d="M 46.694297 292.198661 
L 459.569126 292.198661 
" style="fill: none; stroke: #000000; stroke-width: 0.8; stroke-linejoin: miter; stroke-linecap: square"/>
   </g>
   <g id="legend_1">
    <g id="patch_5">
     <path d="M 52.294297 49.601875 
L 223.516797 49.601875 
Q 225.116797 49.601875 225.116797 48.001875 
L 225.116797 12.8 
Q 225.116797 11.2 223.516797 11.2 
L 52.294297 11.2 
Q 50.694297 11.2 50.694297 12.8 
L 50.694297 48.001875 
Q 50.694297 49.601875 52.294297 49.601875 
z
" style="fill: #ffffff; opacity: 0.8; stroke: #cccccc; stroke-linejoin: miter"/>
    </g>
    <g id="line2d_27">
     <path d="M 53.894297 17.67875 
L 61.894297 17.67875 
L 69.894297 17.67875 
" style="fill: none; stroke: #777777; stroke-width: 1.5; stroke-linecap: square"/>
     <g>
      <use xlink:href="#m2d164fd870" x="61.894297" y="17.67875" style="fill: #777777; stroke: #777777; stroke-linejoin: miter"/>
     </g>
    </g>
    <g id="text_17">
     <!-- 10 samples -->
     <g transform="translate(76.294297 20.47875) scale(0.08 -0.08)">
      <defs>
       <path id="DejaVuSans-56" d="M 2834 3397 
L 2834 2853 
Q 2591 2978 2328 3040 
Q 2066 3103 1784 3103 
Q 1356 3103 1142 2972 
Q 928 2841 928 2578 
Q 928 2378 1081 2264 
Q 1234 2150 1697 2047 
L 1894 2003 
Q 2506 1872 2764 1633 
Q 3022 1394 3022 966 
Q 3022 478 2636 193 
Q 2250 -91 1575 -91 
Q 1294 -91 989 -36 
Q 684 19 347 128 
L 347 722 
Q 666 556 975 473 
Q 1284 391 1588 391 
Q 1994 391 2212 530 
Q 2431 669 2431 922 
Q 2431 1156 2273 1281 
Q 2116 1406 1581 1522 
L 1381 1569 
Q 847 1681 609 1914 
Q 372 2147 372 2553 
Q 372 3047 722 3315 
Q 1072 3584 1716 3584 
Q 2034 3584 2315 3537 
Q 2597 3491 2834 3397 
z
" transform="scale(0.015625)"/>
      </defs>
      <use xlink:href="#DejaVuSans-14"/>
      <use xlink:href="#DejaVuSans-13" transform="translate(63.625 0)"/>
      <use xlink:href="#DejaVuSans-3" transform="translate(127.25 0)"/>
      <use xlink:href="#DejaVuSans-56" transform="translate(159.03125 0)"/>
      <use xlink:href="#DejaVuSans-44" transform="translate(211.125 0)"/>
      <use xlink:href="#DejaVuSans-50" transform="translate(272.40625 0)"/>
      <use xlink:href="#DejaVuSans-53" transform="translate(369.8125 0)"/>
      <use xlink:href="#DejaVuSans-4f" transform="translate(433.296875 0)"/>
      <use xlink:href="#DejaVuSans-48" transform="translate(461.078125 0)"/>
      <use xlink:href="#DejaVuSans-56" transform="translate(522.609375 0)"/>
     </g>
    </g>
    <g id="line2d_28">
     <path d="M 53.894297 29.679375 
L 61.894297 29.679375 
L 69.894297 29.679375 
" style="fill: none; stroke: #9467bd; stroke-width: 1.5; stroke-linecap: square"/>
     <g>
      <use xlink:href="#m1b37b1cf44" x="61.894297" y="29.679375" style="fill: #9467bd; stroke: #9467bd; stroke-linejoin: miter"/>
     </g>
    </g>
    <g id="text_18">
     <!-- 30 samples -->
     <g transform="translate(76.294297 32.479375) scale(0.08 -0.08)">
      <use xlink:href="#DejaVuSans-16"/>
      <use xlink:href="#DejaVuSans-13" transform="translate(63.625 0)"/>
      <use xlink:href="#DejaVuSans-3" transform="translate(127.25 0)"/>
      <use xlink:href="#DejaVuSans-56" transform="translate(159.03125 0)"/>
      <use xlink:href="#DejaVuSans-44" transform="translate(211.125 0)"/>
      <use xlink:href="#DejaVuSans-50" transform="translate(272.40625 0)"/>
      <use xlink:href="#DejaVuSans-53" transform="translate(369.8125 0)"/>
      <use xlink:href="#DejaVuSans-4f" transform="translate(433.296875 0)"/>
      <use xlink:href="#DejaVuSans-48" transform="translate(461.078125 0)"/>
      <use xlink:href="#DejaVuSans-56" transform="translate(522.609375 0)"/>
     </g>
    </g>
    <g id="line2d_29">
     <path d="M 53.894297 41.68 
L 61.894297 41.68 
L 69.894297 41.68 
" style="fill: none; stroke: #1f77b4; stroke-width: 1.5; stroke-linecap: square"/>
     <g>
      <use xlink:href="#m4daf33bf69" x="61.894297" y="41.68" style="fill: #1f77b4; stroke: #1f77b4"/>
     </g>
    </g>
    <g id="text_19">
     <!-- 100 samples -->
     <g transform="translate(76.294297 44.48) scale(0.08 -0.08)">
      <use xlink:href="#DejaVuSans-14"/>
      <use xlink:href="#DejaVuSans-13" transform="translate(63.625 0)"/>
      <use xlink:href="#DejaVuSans-13" transform="translate(127.25 0)"/>
      <use xlink:href="#DejaVuSans-3" transform="translate(190.875 0)"/>
      <use xlink:href="#DejaVuSans-56" transform="translate(222.65625 0)"/>
      <use xlink:href="#DejaVuSans-44" transform="translate(274.75 0)"/>
      <use xlink:href="#DejaVuSans-50" transform="translate(336.03125 0)"/>
      <use xlink:href="#DejaVuSans-53" transform="translate(433.4375 0)"/>
      <use xlink:href="#DejaVuSans-4f" transform="translate(496.921875 0)"/>
      <use xlink:href="#DejaVuSans-48" transform="translate(524.703125 0)"/>
      <use xlink:href="#DejaVuSans-56" transform="translate(586.234375 0)"/>
     </g>
    </g>
    <g id="line2d_30">
     <path d="M 143.360547 17.67875 
L 151.360547 17.67875 
L 159.360547 17.67875 
" style="fill: none; stroke: #ff7f0e; stroke-width: 1.5; stroke-linecap: square"/>
     <g>
      <use xlink:href="#m83b1d5cf48" x="151.360547" y="17.67875" style="fill: #ff7f0e; stroke: #ff7f0e; stroke-linejoin: miter"/>
     </g>
    </g>
    <g id="text_20">
     <!-- 300 samples -->
     <g transform="translate(165.760547 20.47875) scale(0.08 -0.08)">
      <use xlink:href="#DejaVuSans-16"/>
      <use xlink:href="#DejaVuSans-13" transform="translate(63.625 0)"/>
      <use xlink:href="#DejaVuSans-13" transform="translate(127.25 0)"/>
      <use xlink:href="#DejaVuSans-3" transform="translate(190.875 0)"/>
      <use xlink:href="#DejaVuSans-56" transform="translate(222.65625 0)"/>
      <use xlink:href="#DejaVuSans-44" transform="translate(274.75 0)"/>
      <use xlink:href="#DejaVuSans-50" transform="translate(336.03125 0)"/>
      <use xlink:href="#DejaVuSans-53" transform="translate(433.4375 0)"/>
      <use xlink:href="#DejaVuSans-4f" transform="translate(496.921875 0)"/>
      <use xlink:href="#DejaVuSans-48" transform="translate(524.703125 0)"/>
      <use xlink:href="#DejaVuSans-56" transform="translate(586.234375 0)"/>
     </g>
    </g>
    <g id="line2d_31">
     <path d="M 143.360547 29.679375 
L 151.360547 29.679375 
L 159.360547 29.679375 
" style="fill: none; stroke: #2ca02c; stroke-width: 1.5; stroke-linecap: square"/>
     <g>
      <use xlink:href="#m2166344d33" x="151.360547" y="29.679375" style="fill: #2ca02c; stroke: #2ca02c; stroke-linejoin: miter"/>
     </g>
    </g>
    <g id="text_21">
     <!-- 1000 samples -->
     <g transform="translate(165.760547 32.479375) scale(0.08 -0.08)">
      <use xlink:href="#DejaVuSans-14"/>
      <use xlink:href="#DejaVuSans-13" transform="translate(63.625 0)"/>
      <use xlink:href="#DejaVuSans-13" transform="translate(127.25 0)"/>
      <use xlink:href="#DejaVuSans-13" transform="translate(190.875 0)"/>
      <use xlink:href="#DejaVuSans-3" transform="translate(254.5 0)"/>
      <use xlink:href="#DejaVuSans-56" transform="translate(286.28125 0)"/>
      <use xlink:href="#DejaVuSans-44" transform="translate(338.375 0)"/>
      <use xlink:href="#DejaVuSans-50" transform="translate(399.65625 0)"/>
      <use xlink:href="#DejaVuSans-53" transform="translate(497.0625 0)"/>
      <use xlink:href="#DejaVuSans-4f" transform="translate(560.546875 0)"/>
      <use xlink:href="#DejaVuSans-48" transform="translate(588.328125 0)"/>
      <use xlink:href="#DejaVuSans-56" transform="translate(649.859375 0)"/>
     </g>
    </g>
   </g>
  </g>
 </g>
 <defs>
  <clipPath id="pc884472197">
   <rect x="46.694297" y="7.2" width="412.874829" height="284.998661"/>
  </clipPath>
 </defs>
</svg>
